<?xml version="1.0" encoding="UTF-8"?>
<!-- Generated by Pixelmator Pro 2.4.2 -->
<svg width="40" height="40" viewBox="0 0 40 40" xmlns="http://www.w3.org/2000/svg" xmlns:xlink="http://www.w3.org/1999/xlink">
    <g id="Group">
        <path id="Path" fill="#00b89c" stroke="none" d="M 39.713501 2.552029 C 39.713501 1.27734 38.670601 0.234375 37.395901 0.234375 L 2.26813 0.234375 C 1.12094 0.234375 0.18227 1.17305 0.18227 2.320229 L 0.18227 37.679798 C 0.18227 38.827 1.12094 39.765598 2.26813 39.765598 L 37.395901 39.765598 C 38.670502 39.765598 39.713501 38.722698 39.713501 37.448002 L 39.713501 2.552029 Z"/>
        <path id="path1" fill="#009e83" stroke="none" d="M 37.395901 38.1964 L 2.26813 38.1964 C 1.12094 38.1964 0.18227 37.257801 0.18227 36.1106 L 0.18227 37.679699 C 0.18227 38.8269 1.12094 39.765598 2.26813 39.765598 L 37.395901 39.765598 C 38.670502 39.765598 39.713501 38.722599 39.713501 37.447899 L 39.713501 35.878799 C 39.713501 37.1535 38.670601 38.1964 37.395901 38.1964 L 37.395901 38.1964 Z"/>
        <path id="path2" fill="#ffffff" stroke="none" d="M 33.089802 9.200119 L 29.0168 6.822472 C 28.515202 6.529579 27.871 6.698872 27.578199 7.200592 L 17.5921 24.306999 L 11.0175 20.469 C 10.6108 20.2316 10.0886 20.3689 9.8512 20.7756 L 7.2727 25.192499 C 7.0353 25.5993 7.1726 26.1215 7.5793 26.3589 L 19.306801 33.204899 C 19.713499 33.442299 20.235701 33.305 20.473101 32.8983 L 20.568199 32.735401 C 20.570101 32.732201 20.5723 32.729401 20.5742 32.7262 L 33.467999 10.638699 C 33.760799 10.1371 33.591499 9.493019 33.089802 9.200119 L 33.089802 9.200119 Z"/>
    </g>
</svg>
