<?xml version="1.0" encoding="UTF-8"?>
<!-- Generated by Pixelmator Pro 2.4.2 -->
<svg width="629" height="504" viewBox="0 0 629 504" xmlns="http://www.w3.org/2000/svg" xmlns:xlink="http://www.w3.org/1999/xlink">
    <text id="ChildWatch-Bermuda" xml:space="preserve"><tspan x="315" y="206" text-anchor="middle" font-family="Poppins" font-size="96" font-weight="700" fill="#ffffff" xml:space="preserve">ChildWatch</tspan><tspan x="315" y="351" text-anchor="middle" font-family="Poppins" font-size="96" font-weight="700" fill="#ffffff" xml:space="preserve">Bermuda</tspan></text>
    <path id="Path-copy-4" fill="none" stroke="#f3fc0e" stroke-linecap="round" stroke-linejoin="round" d="M 134.451172 504 L 133.556641 499.798828 L 127.824219 501.732422 L 121.199219 497.615234 L 106.755859 497.785156 L 96.556641 496.1875 L 84.572266 500.722656 L 74 501.228516 L 66.853516 500.388672 L 58.960938 492.828125 L 46.306641 485.015625 L 38.339844 476.869141 L 31.564453 466.873047 L 24.492188 458.890625 L 22.185547 451.919922 L 19.28125 434.111328 L 15.708984 420.839844 L 8.412109 398.916016 L 0 381.611328 L 4.244141 380.015625 L 2.828125 378 L 13.474609 371.615234 L 13.773438 375.144531 L 8.859375 377.664063 L 7.072266 381.277344 L 12.134766 391.019531 L 11.613281 397.740234 L 16.378906 402.443359 L 19.654297 402.779297 L 17.792969 392.363281 L 22.408203 393.119141 L 22.78125 390.095703 L 32.830078 397.320313 L 39.158203 406.056641 L 44.816406 408.996094 L 50.773438 408.072266 L 60.226563 411.263672 L 61.865234 415.378906 L 75.414063 419.160156 L 80.328125 416.808594 L 74.222656 416.386719 L 83.15625 414.287109 L 99.908203 417.310547 L 104.224609 423.443359 L 93.505859 426.972656 L 80.701172 424.955078 L 72.361328 420.335938 L 66.927734 418.488281 L 65.140625 420 L 58.960938 416.638672 L 57.101563 419.664063 L 60.226563 420.587891 L 60.451172 426.972656 L 59.111328 431.255859 L 62.238281 440.916016 L 59.707031 443.603516 L 60.451172 455.363281 L 56.505859 458.724609 L 63.652344 463.091797 L 61.791016 467.626953 L 73.703125 470.568359 L 78.763672 480.900391 L 82.560547 481.488281 L 86.208984 475.607422 L 89.261719 479.304688 L 96.78125 480.732422 L 98.939453 478.294922 L 104.076172 479.386719 L 105.341797 477.289063 L 111 477.623047 L 122.986328 474.851563 L 127.675781 471.828125 L 128.71875 468.046875 L 129.984375 472.164063 L 138.917969 470.484375 L 144.351563 468.214844 L 150.753906 468.552734 L 154.03125 465.275391 L 145.767578 462.335938 L 148.96875 458.808594 L 156.189453 457.966797 L 163.261719 451.416016 L 169.439453 449.904297 L 177.40625 449.904297 L 174.205078 447.382813 L 167.503906 448.642578 L 166.984375 445.957031 L 162.21875 447.720703 L 163.410156 442.34375 L 156.634766 448.642578 L 154.402344 448.056641 L 148.222656 451.919922 L 146.435547 451.164063 L 148.96875 445.537109 L 148 441.419922 L 151.423828 436.630859 L 147.107422 434.867188 L 154.03125 430.835938 L 162.591797 431.339844 L 174.578125 429.828125 L 183.509766 424.621094 L 185.892578 422.183594 L 192.742188 418.992188 L 197.283203 413.447266 L 205.919922 411.431641 L 212.841797 408.660156 L 220.363281 402.193359 L 222.224609 402.193359 L 233.6875 390.095703 L 241.207031 383.375 L 244.111328 384.466797 L 249.023438 381.277344 L 246.865234 379.175781 L 248.205078 372.373047 L 251.703125 377.496094 L 252.970703 374.136719 L 256.46875 377.412109 L 269.347656 371.027344 L 272.103516 372.707031 L 278.28125 363.216797 L 279.25 359.435547 L 287.363281 353.556641 L 290.490234 355.992188 L 296.669922 352.548828 L 295.404297 344.988281 L 303.146484 342.888672 L 304.783203 344.652344 L 307.017578 341.208984 L 296.744141 340.537109 L 289.298828 342.634766 L 288.556641 345.324219 L 277.091797 346.919922 L 276.941406 345.660156 L 269.646484 345.828125 L 265.476563 347.339844 L 264.583984 351.539063 L 261.605469 349.355469 L 254.755859 351.539063 L 255.203125 353.470703 L 245.599609 352.042969 L 244.259766 349.1875 L 247.982422 348.431641 L 241.654297 346.332031 L 240.611328 350.53125 L 232.496094 340.619141 L 227.507813 341.123047 L 227.433594 344.316406 L 223.042969 344.736328 L 216.267578 348.767578 L 210.386719 345.492188 L 211.205078 344.146484 L 210.162109 333.144531 L 216.042969 334.152344 L 216.564453 327.851563 L 221.255859 335.664063 L 226.839844 338.603516 L 225.572266 333.984375 L 222.148438 329.615234 L 223.042969 326.675781 L 218.277344 324.828125 L 212.693359 328.943359 L 210.759766 318.191406 L 205.994141 317.603516 L 209.791016 312.228516 L 214.703125 315.419922 L 216.640625 319.367188 L 218.501953 316.511719 L 222.224609 317.603516 L 226.167969 315.335938 L 222.595703 315 L 216.490234 311.808594 L 213.140625 308.365234 L 209.417969 309.457031 L 205.994141 314.244141 L 204.802734 307.775391 L 195.347656 320.796875 L 191.773438 321.216797 L 195.869141 317.015625 L 195.794922 311.470703 L 194.082031 308.615234 L 186.191406 307.1875 L 183.212891 303.072266 L 186.414063 302.736328 L 184.628906 298.117188 L 189.541016 298.789063 L 190.0625 294.335938 L 196.912109 291.396484 L 202.197266 292.236328 L 210.833984 290.386719 L 215.224609 292.318359 L 214.853516 294.755859 L 220.660156 294.755859 L 221.105469 297.947266 L 224.232422 296.939453 L 237.1875 299.542969 L 241.28125 299.123047 L 248.875 300.720703 L 268.306641 296.267578 L 268.976563 298.117188 L 278.876953 295.175781 L 282.748047 295.679688 L 291.533203 292.236328 L 302.103516 290.554688 L 305.603516 288.792969 L 318.556641 286.019531 L 333 278.292969 L 344.091797 273.083984 L 350.867188 267.119141 L 359.279297 261.912109 L 369.404297 254.267578 L 374.019531 244.691406 L 379.529297 240.996094 L 380.720703 237.552734 L 384.740234 238.978516 L 390.919922 238.476563 L 392.855469 240.912109 L 400.820313 237.466797 L 407.744141 242.171875 L 418.912109 239.232422 L 433.279297 240.576172 L 440.574219 242.591797 L 443.255859 245.027344 L 450.699219 244.859375 L 451.890625 236.460938 L 449.285156 233.435547 L 449.359375 229.740234 L 453.677734 217.642578 L 458.367188 213.611328 L 460.080078 208.824219 L 472.365234 197.398438 L 480.03125 189.083984 L 480.181641 187.152344 L 471.025391 182.953125 L 468.417969 179.339844 L 466.185547 182.195313 L 464.175781 177.240234 L 466.630859 170.6875 L 462.611328 170.015625 L 463.355469 167.664063 L 460.601563 164.220703 L 457.400391 163.882813 L 456.878906 158.339844 L 454.347656 160.271484 L 444.371094 160.859375 L 440.203125 164.302734 L 443.554688 165.984375 L 436.480469 169.763672 L 435.365234 173.628906 L 425.462891 176.820313 L 418.912109 181.355469 L 414.964844 181.019531 L 412.957031 189.755859 L 403.425781 197.988281 L 399.183594 198.15625 L 395.460938 201.599609 L 400.150391 207.3125 L 396.130859 206.640625 L 395.982422 212.351563 L 392.482422 212.015625 L 390.25 216.048828 L 393.078125 221.423828 L 388.761719 230.496094 L 384.070313 231.419922 L 387.419922 235.201172 L 395.535156 235.201172 L 394.642578 238.306641 L 388.462891 236.207031 L 380.273438 235.115234 L 378.039063 229.320313 L 381.986328 217.140625 L 387.048828 210.419922 L 388.982422 205.96875 L 386.974609 201.347656 L 382.285156 203.279297 L 381.837891 199.164063 L 385.78125 192.863281 L 386.154297 184.464844 L 388.166016 181.019531 L 392.78125 178.416016 L 394.121094 172.619141 L 393.376953 166.404297 L 396.429688 163.210938 L 405.882813 158.84375 L 408.042969 159.599609 L 418.539063 153.634766 L 421.292969 150.359375 L 433.800781 144.984375 L 430.078125 139.019531 L 435.958984 136.667969 L 439.384766 131.712891 L 443.404297 129.359375 L 442.660156 124.152344 L 445.042969 119.53125 L 448.689453 124.152344 L 455.539063 130.199219 L 459.410156 129.695313 L 463.951172 133.560547 L 465.886719 139.189453 L 464.25 141.121094 L 467.451172 145.570313 L 467.078125 150.527344 L 473.628906 154.054688 L 468.34375 160.355469 L 470.279297 165.394531 L 474.671875 167.076172 L 474.226563 171.527344 L 483.605469 172.453125 L 490.082031 177.744141 L 503.929688 186.228516 L 508.248047 184.966797 L 511.820313 186.058594 L 511.894531 190.259766 L 514.650391 195.384766 L 512.341797 196.978516 L 512.640625 201.347656 L 510.257813 198.576172 L 508.992188 201.431641 L 512.042969 205.800781 L 513.458984 201.347656 L 516.660156 198.15625 L 521.796875 200.927734 L 526.634766 200.507813 L 526.189453 196.056641 L 532.294922 197.232422 L 536.537109 192.023438 L 539.365234 191.099609 L 542.046875 194.626953 L 547.480469 191.939453 L 550.904297 183.625 L 557.083984 180.599609 L 559.318359 182.953125 L 554.626953 185.808594 L 551.054688 194.542969 L 534.75 200.003906 L 527.082031 208.908203 L 522.615234 208.908203 L 512.9375 214.367188 L 499.238281 217.476563 L 483.830078 229.740234 L 481.521484 229.824219 L 461.421875 246.119141 L 461.271484 248.554688 L 457.101563 252.419922 L 457.996094 254.771484 L 454.347656 256.367188 L 455.912109 260.314453 L 447.796875 267.119141 L 444.96875 266.363281 L 435.587891 269.556641 L 434.171875 274.931641 L 429.037109 277.621094 L 423.378906 285.095703 L 414.816406 288.035156 L 404.021484 294.335938 L 400.970703 298.619141 L 393.896484 303.072266 L 391.291016 310.464844 L 388.314453 311.556641 L 387.568359 307.859375 L 381.761719 307.775391 L 378.039063 310.96875 L 379.007813 318.275391 L 376.550781 319.535156 L 374.763672 315.587891 L 372.605469 319.115234 L 374.169922 324.744141 L 365.755859 330.371094 L 363.298828 328.775391 L 353.398438 338.099609 L 350.123047 344.232422 L 346.177734 345.408203 L 342.230469 351.958984 L 334.787109 359.267578 L 335.53125 352.462891 L 329.947266 355.824219 L 333.373047 361.705078 L 331.660156 366.576172 L 322.503906 371.363281 L 313.046875 382.535156 L 310.890625 388.667969 L 303.59375 399.671875 L 291.681641 412.439453 L 284.833984 418.740234 L 267.560547 428.818359 L 261.605469 431.171875 L 246.939453 439.486328 L 231.455078 449.148438 L 226.318359 453.011719 L 222.521484 453.935547 L 215.96875 459.982422 L 198.623047 470.484375 L 187.53125 479.554688 L 179.042969 484.511719 L 173.3125 485.855469 L 169.216797 492.072266 L 166.462891 494.003906 L 159.835938 491.568359 L 148.447266 496.355469 L 148.371094 499.546875 L 140.183594 501.480469 L 142.267578 498.455078 L 140.853516 495.935547 L 137.652344 497.113281 L 138.767578 499.96875 L 134.451172 504 Z M 28.066406 393.119141 L 27.917969 391.355469 L 36.181641 378.587891 L 31.640625 381.949219 L 23.822266 385.306641 L 22.037109 384.132813 L 24.121094 379.763672 L 32.607422 369.767578 L 31.044922 365.148438 L 35.212891 362.039063 L 35.287109 358.847656 L 30.076172 354.564453 L 32.980469 341.460938 L 30.894531 341.208984 L 31.490234 331.212891 L 30.076172 325.416016 L 21.738281 305.759766 L 18.089844 304.919922 L 16.824219 301.308594 L 20.919922 298.03125 L 23.599609 301.894531 L 31.193359 305.087891 L 39.904297 305.171875 L 43.029297 301.8125 L 47.572266 293.244141 L 45.933594 289.212891 L 52.558594 282.744141 L 58.664063 282.072266 L 59.929688 284.255859 L 53.080078 285.263672 L 52.261719 290.472656 L 56.429688 293.580078 L 58.365234 297.445313 L 55.759766 299.291016 L 57.25 305.087891 L 67.671875 303.408203 L 71.246094 299.710938 L 76.083984 302.400391 L 70.203125 311.470703 L 69.236328 318.443359 L 71.021484 322.476563 L 78.466797 325.751953 L 76.605469 327.9375 L 70.798828 323.736328 L 73.330078 330.371094 L 66.927734 329.111328 L 65.662109 335.244141 L 55.685547 341.460938 L 50.773438 341.460938 L 51.369141 346.332031 L 49.878906 353.050781 L 44.816406 364.308594 L 44.294922 372.541016 L 42.359375 374.808594 L 46.826172 376.908203 L 48.091797 384.46875 L 42.806641 386.064453 L 33.351563 392.951172 L 28.066406 393.119141 Z M 613.886719 153.46875 L 610.611328 148.175781 L 603.763672 152.041016 L 605.847656 146.580078 L 600.115234 143.21875 L 599.964844 147.503906 L 592.669922 134.148438 L 589.765625 126 L 586.564453 126.587891 L 586.638672 119.615234 L 584.183594 115.583984 L 576.738281 110.207031 L 572.71875 109.367188 L 572.419922 106.847656 L 563.785156 101.640625 L 548.822266 97.691406 L 538.546875 97.271484 L 534.080078 98.867188 L 531.847656 103.320313 L 531.773438 114.324219 L 532.591797 127.511719 L 531.251953 129.947266 L 526.337891 130.03125 L 523.955078 99.792969 L 520.53125 95.339844 L 511.970703 92.820313 L 507.652344 93.072266 L 493.955078 100.96875 L 500.058594 98.615234 L 502.664063 99.623047 L 502.738281 104.160156 L 495.517578 113.064453 L 490.306641 109.787109 L 484.052734 114.072266 L 478.394531 113.736328 L 475.9375 110.376953 L 472.886719 101.724609 L 473.480469 94.080078 L 482.935547 89.291016 L 489.486328 87.023438 L 503.408203 78.707031 L 506.386719 74.84375 L 511.150391 72.15625 L 522.765625 74.927734 L 527.380859 70.392578 L 527.15625 67.787109 L 537.505859 70.056641 L 548.896484 70.980469 L 552.916016 72.576172 L 557.234375 69.888672 L 562.519531 70.476563 L 564.677734 75.347656 L 569.964844 72.576172 L 577.556641 74.339844 L 580.3125 76.439453 L 583.587891 73.667969 L 585.449219 80.472656 L 582.84375 83.916016 L 580.162109 83.748047 L 578.673828 87.695313 L 582.84375 89.125 L 586.9375 87.275391 L 588.576172 89.375 L 592.148438 88.199219 L 596.392578 91.224609 L 596.021484 83.832031 L 608.378906 82.908203 L 615.972656 78.203125 L 615.748047 75.515625 L 608.601563 77.699219 L 605.771484 80.220703 L 602.498047 77.447266 L 608.154297 72.660156 L 605.921875 72.744141 L 605.996094 66.779297 L 612.398438 65.519531 L 622.746094 66.275391 L 624.832031 69.132813 L 621.779297 73.080078 L 625.203125 73.919922 L 629 82.488281 L 624.832031 84 L 622.746094 88.619141 L 624.085938 91.308594 L 622.001953 101.220703 L 617.087891 108.947266 L 611.207031 102.648438 L 602.349609 105.419922 L 601.751953 103.404297 L 597.509766 104.664063 L 594.382813 118.859375 L 596.914063 123.816406 L 601.007813 125.748047 L 607.113281 134.232422 L 604.730469 136.835938 L 605.029297 140.615234 L 612.027344 145.570313 L 615.599609 151.451172 L 613.886719 153.46875 Z M 448.466797 101.220703 L 452.189453 94.5 L 458.144531 94.080078 L 458.21875 91.476563 L 453.974609 89.123047 L 457.773438 83.160156 L 465.962891 77.111328 L 480.404297 68.796875 L 494.027344 55.271484 L 507.726563 44.6875 L 512.640625 42.587891 L 525.146484 31.835938 L 532.144531 24.359375 L 538.919922 14.783203 L 546.289063 10.5 L 546.662109 5.125 L 549.490234 4.199219 L 548.820313 7.8125 L 553.064453 7.896484 L 550.904297 4.283203 L 558.796875 0 L 559.318359 7.476563 L 562.519531 10.164063 L 566.242188 16.296875 L 568.921875 16.96875 L 574.876953 24.191406 L 582.023438 37.296875 L 585.298828 35.699219 L 588.873047 41.496094 L 582.023438 43.847656 L 578.673828 43.175781 L 570.484375 36.539063 L 566.464844 36.203125 L 564.15625 33.431641 L 557.904297 31.919922 L 556.564453 34.1875 L 546.587891 38.220703 L 546.810547 40.152344 L 535.419922 45.947266 L 524.402344 47.628906 L 526.785156 49.980469 L 520.382813 54.179688 L 511.375 53.171875 L 516.882813 46.619141 L 511.375 45.275391 L 511.300781 49.560547 L 507.726563 48.636719 L 503.259766 52.332031 L 501.994141 56.027344 L 511.671875 60.732422 L 516.363281 57.455078 L 520.828125 59.724609 L 521.572266 65.435547 L 519.861328 67.283203 L 512.789063 62.916016 L 512.9375 66.191406 L 509.513672 69.552734 L 498.123047 75.011719 L 495.515625 69.46875 L 494.847656 76.271484 L 486.433594 80.388672 L 480.849609 79.96875 L 474.300781 87.023438 L 467.824219 86.519531 L 466.333984 89.375 L 461.792969 89.880859 L 462.314453 92.232422 L 458.21875 99.371094 L 448.466797 101.220703 Z"/>
</svg>
