<svg width="517" height="377" viewBox="0 0 517 377" fill="none" xmlns="http://www.w3.org/2000/svg">
<path fill-rule="evenodd" clip-rule="evenodd" d="M368.187 76.1845L371.234 71.193L376.111 70.8811L376.171 68.9469L372.697 67.1998L375.806 62.7699L382.511 58.2775L394.336 52.1005L405.49 42.0551L416.706 34.1935L420.729 32.6337L430.969 24.6473L436.699 19.0942L442.246 11.9813L448.28 8.79923L448.585 4.80602L450.901 4.11969L450.352 6.80262L453.827 6.86502L452.059 4.18208L458.52 1L458.947 6.55305L461.568 8.54965L464.616 13.1044L466.81 13.6036L471.686 18.9694L477.538 28.7029L480.22 27.5174L483.146 31.8225L477.538 33.5696L474.795 33.0704L468.09 28.1413L464.799 27.8917L462.909 25.8327L457.789 24.7096L456.692 26.3943L448.524 29.3892L448.707 30.8242L439.381 35.1294L430.36 36.3773L432.31 38.1243L427.068 41.244L419.693 40.4953L424.203 35.6286L419.693 34.6303L419.632 37.8124L416.706 37.126L413.049 39.8713L412.012 42.6167L419.936 46.1107L423.777 43.6774L427.434 45.362L428.043 49.6048L426.641 50.9774L420.851 47.733L420.973 50.1663L418.169 52.6621L408.843 56.7177L406.709 52.5997L406.161 57.6536L399.273 60.7109L394.701 60.3989L389.338 65.64L384.035 65.2656L382.815 67.387L379.097 67.7614L379.524 69.5084L376.171 74.8119L368.187 76.1845Z" stroke="#F8FC8D"/>
<path fill-rule="evenodd" clip-rule="evenodd" d="M478.818 55.7194L480.342 60.7733L478.209 63.3314L476.014 63.2067L474.795 66.1392L478.209 67.1999L481.561 65.8272L482.902 67.387L485.828 66.5135L489.302 68.7597L488.998 63.2691L499.116 62.5827L505.333 59.0887L505.15 57.0921L499.299 58.7143L496.982 60.5861L494.301 58.5271L498.933 54.9707L497.104 55.0331L497.165 50.6031L502.407 49.6672L510.88 50.2287L512.587 52.3501L510.088 55.2826L512.891 55.9066L516 62.2708L512.587 63.3938L510.88 66.8255L511.977 68.8221L510.27 76.1846L506.247 81.9248L501.432 77.2453L494.179 79.3043L493.691 77.8068L490.217 78.7427L487.657 89.2873L489.729 92.9685L493.081 94.4036L498.08 100.705L496.129 102.64L496.373 105.447L502.103 109.128L505.028 113.496L503.626 114.994L500.944 111.063L495.337 113.933L497.043 109.877L492.35 107.381L492.228 110.564L486.255 100.643L483.877 94.5907L481.256 95.0275L481.317 89.8488L479.306 86.8539L473.21 82.8607L469.919 82.2368L469.675 80.365L462.604 76.4965L450.353 73.564L441.941 73.2521L438.284 74.4375L436.455 77.7444L436.394 85.918L437.065 95.7138L435.968 97.5232L431.945 97.5856L429.994 75.1239L427.19 71.817L420.181 69.9452L416.645 70.1324L405.43 75.9974L410.428 74.2504L412.561 74.9991L412.622 78.3684L406.71 84.9821L402.443 82.5487L397.323 85.7308L392.69 85.4812L390.679 82.9855L388.18 76.5589L388.667 70.8811L396.408 67.3246L401.772 65.64L413.171 59.463L415.609 56.5929L419.51 54.5963L429.019 56.6553L432.798 53.286L432.615 51.3518L441.088 53.0365L450.414 53.7228L453.705 54.9083L457.241 52.9117L461.568 53.3484L463.336 56.9673L467.664 54.9083L473.881 56.2186L476.136 57.7784L478.818 55.7194Z" stroke="#F8FC8D"/>
<path fill-rule="evenodd" clip-rule="evenodd" d="M23.9797 293.003L23.8578 291.693L30.6237 282.209L26.9055 284.705L20.5053 287.2L19.0424 286.327L20.7491 283.082L27.6979 275.658L26.4178 272.226L29.8313 269.917L29.8922 267.546L25.6254 264.364L28.0026 254.631L26.2959 254.444L26.7836 247.019L25.6254 242.714L18.7986 228.114L15.8119 227.49L14.7756 224.807L18.1281 222.373L20.3224 225.243L26.5397 227.614L33.6714 227.677L36.2314 225.181L39.9496 218.817L38.6086 215.822L44.0335 211.018L49.0318 210.518L50.068 212.141L44.4602 212.889L43.7897 216.758L47.2031 219.066L48.7879 221.937L46.6546 223.309L47.8736 227.614L56.4072 226.367L59.333 223.621L63.295 225.618L58.4796 232.356L57.6872 237.535L59.1501 240.53L65.2455 242.963L63.7217 244.586L58.9673 241.466L61.0397 246.395L55.7976 245.459L54.7614 250.014L46.5936 254.631H42.5706L43.0583 258.25L41.8392 263.241L37.6943 271.602L37.2676 277.717L35.6828 279.401L39.3401 280.961L40.3763 286.577L36.0486 287.762L28.3074 292.878L23.9797 293.003Z" stroke="#F8FC8D"/>
<path fill-rule="evenodd" clip-rule="evenodd" d="M1 284.455L4.47437 283.27L3.31625 281.772L12.0327 277.03L12.2765 279.651L8.25352 281.523L6.79062 284.206L10.9355 291.443L10.5088 296.435L14.4099 299.929L17.0918 300.178L15.568 292.441L19.3471 293.003L19.6519 290.757L27.8807 296.123L33.0618 302.612L37.6943 304.795L42.5706 304.109L50.3117 306.48L51.6527 309.537L62.7464 312.345L66.7693 310.598L61.7711 310.286L69.0856 308.726L82.8002 310.972L86.3355 315.527L77.5582 318.148L67.0741 316.65L60.2472 313.219L55.7976 311.846L54.3347 312.969L49.2755 310.473L47.7517 312.719L50.3117 313.406L50.4946 318.148L49.3974 321.33L51.9575 328.505L49.8851 330.502L50.4946 339.237L47.264 341.733L53.1156 344.977L51.5918 348.346L61.3444 350.53L65.4893 358.205L68.5979 358.641L71.5847 354.274L74.0838 357.019L80.2401 358.08L82.0078 356.27L86.2136 357.081L87.2498 355.522L91.8823 355.771L101.696 353.712L105.536 351.466L106.389 348.658L107.426 351.716L114.74 350.468L119.19 348.783L124.432 349.033L127.114 346.599L120.348 344.416L122.969 341.795L128.881 341.171L134.672 336.304L139.731 335.181H146.253L143.632 333.309L138.146 334.245L137.72 332.249L133.819 333.559L134.794 329.566L129.247 334.245L127.418 333.809L122.359 336.679L120.896 336.117L122.969 331.937L122.176 328.879L124.98 325.323L121.445 324.013L127.114 321.018L134.123 321.392L143.937 320.269L151.251 316.401L153.202 314.591L158.81 312.22L162.528 308.102L169.599 306.605L175.267 304.546L181.424 299.742H182.948L192.334 290.757L198.491 285.765L200.868 286.576L204.891 284.206L203.123 282.646L204.22 277.592L207.085 281.398L208.122 278.902L210.986 281.335L221.531 276.593L223.787 277.841L228.846 270.791L229.638 267.983L236.282 263.616L238.842 265.425L243.901 262.867L242.865 257.251L249.204 255.692L250.545 257.002L252.374 254.444L243.962 253.945L237.867 255.504L237.258 257.501L227.871 258.686L227.749 257.751L221.775 257.875L218.362 258.998L217.63 262.118L215.192 260.496L209.584 262.118L209.95 263.553L202.087 262.492L200.99 260.371L204.038 259.81L198.857 258.25L198.003 261.369L191.359 254.007L187.275 254.381L187.214 256.752L183.618 257.064L178.071 260.059L173.256 257.626L173.926 256.627L173.073 248.454L177.888 249.203L178.315 244.523L182.155 250.326L186.727 252.509L185.69 249.078L182.887 245.833L183.618 243.65L179.717 242.277L175.145 245.334L173.561 237.348L169.66 236.911L172.768 232.918L176.791 235.289L178.376 238.221L179.9 236.1L182.948 236.911L186.178 235.226L183.252 234.977L178.254 232.606L175.511 230.048L172.463 230.859L169.66 234.415L168.684 229.611L160.943 239.282L158.017 239.594L161.37 236.474L161.309 232.356L159.907 230.235L153.446 229.174L151.008 226.117L153.629 225.867L152.166 222.436L156.189 222.935L156.615 219.628L162.223 217.444L166.551 218.068L173.622 216.695L177.218 218.13L176.913 219.94H181.668L182.033 222.311L184.593 221.562L195.199 223.496L198.552 223.184L204.769 224.37L220.678 221.063L221.227 222.436L229.334 220.252L232.503 220.626L239.696 218.068L248.351 216.82L251.216 215.51L261.822 213.451L273.647 207.711L282.729 203.842L288.276 199.412L295.164 195.544L303.454 189.866L307.233 182.753L311.743 180.008L312.719 177.45L316.01 178.51L321.069 178.136L322.654 179.945L329.176 177.387L334.845 180.881L343.988 178.698L355.752 179.696L361.725 181.193L363.92 183.003L370.015 182.878L370.99 176.639L368.857 174.392L368.918 171.647L372.453 162.662L376.293 159.667L377.695 156.111L387.753 147.625L394.031 141.448L394.153 140.013L386.656 136.894L384.522 134.211L382.694 136.332L381.048 132.651L383.059 127.784L379.768 127.285L380.377 125.538L378.122 122.98L375.501 122.73L375.074 118.612L373.002 120.047L364.834 120.484L361.421 123.042L364.164 124.29L358.373 127.098L357.459 129.968L349.352 132.339L343.988 135.708L340.757 135.459L339.112 141.948L331.309 148.062L327.835 148.187L324.787 150.745L328.627 154.988L325.336 154.489L325.214 158.732L322.349 158.482L320.521 161.477L322.837 165.47L319.302 172.209L315.461 172.895L318.204 175.703H324.848L324.117 178.011L319.058 176.451L312.353 175.64L310.524 171.335L313.755 162.288L317.9 157.297L319.484 153.99L317.839 150.558L313.999 151.993L313.633 148.936L316.863 144.256L317.168 138.017L318.814 135.459L322.593 133.524L323.69 129.219L323.081 124.602L325.58 122.231L333.321 118.987L335.089 119.548L343.683 115.118L345.938 112.685L356.179 108.692L353.131 104.262L357.946 102.515L360.75 98.8335L364.042 97.0865L363.432 93.2181L365.383 89.7864L368.369 93.2181L373.977 97.7104L377.147 97.3361L380.865 100.206L382.45 104.387L381.109 105.822L383.73 109.128L383.425 112.81L388.789 115.43L384.461 120.11L386.046 123.853L389.642 125.101L389.277 128.408L396.957 129.095L402.26 133.025L413.597 139.327L417.133 138.391L420.058 139.202L420.119 142.322L422.375 146.128L420.485 147.313L420.729 150.558L418.778 148.499L417.742 150.62L420.241 153.865L421.399 150.558L424.02 148.187L428.226 150.246L432.188 149.934L431.823 146.627L436.821 147.501L440.295 143.632L442.611 142.946L444.806 145.566L449.255 143.57L452.059 137.393L457.118 135.147L458.947 136.894L455.107 139.015L452.181 145.504L438.832 149.56L432.554 156.173H428.897L420.973 160.229L409.757 162.538L397.14 171.647L395.25 171.709L378.793 183.814L378.671 185.623L375.257 188.493L375.989 190.24L373.002 191.426L374.282 194.358L367.638 199.412L365.322 198.851L357.642 201.222L356.483 205.215L352.278 207.212L347.645 212.765L340.635 214.948L331.797 219.628L329.298 222.81L323.507 226.117L321.374 231.608L318.936 232.419L318.326 229.673L313.572 229.611L310.524 231.982L311.317 237.41L309.305 238.346L307.842 235.414L306.075 238.034L307.355 242.214L300.467 246.395L298.455 245.209L290.348 252.135L287.666 256.69L284.436 257.563L281.205 262.43L275.11 267.858L275.719 262.804L271.148 265.3L273.952 269.668L272.55 273.287L265.053 276.843L257.311 285.141L255.544 289.696L249.57 297.87L239.818 307.354L234.21 312.033L220.068 319.52L215.192 321.267L203.184 327.444L190.506 334.62L186.3 337.49L183.191 338.176L177.827 342.668L163.625 350.468L154.543 357.206L147.594 360.887L142.901 361.886L139.548 366.503L137.293 367.938L131.868 366.129L122.542 369.685L122.481 372.056L115.776 373.491L117.483 371.245L116.325 369.373L113.704 370.247L114.618 372.368L111.083 375.363L110.351 372.243L105.658 373.678L100.233 370.621L88.408 370.746L80.0573 369.56L70.2437 372.929L61.5882 373.304L55.7367 372.68L49.2755 367.064L38.9134 361.262L32.3913 355.21L26.8445 347.785L21.0539 341.857L19.1643 336.679L16.7871 323.451L13.8613 313.593L7.8878 297.308L1 284.455Z" stroke="#F8FC8D"/>
</svg>
