<svg width="407" height="240" viewBox="0 0 407 240" fill="none" xmlns="http://www.w3.org/2000/svg">
<g clip-path="url(#clip0_14_2)">
<g opacity="0.8">
<path d="M50.4166 153.412L52.9065 152.52L55.3054 151.232L55.297 150.539L58.5775 150.131L58.1574 146.987L57.4239 147.001V146.634H58.1409L58.1325 145.937L55.9389 145.625L59.0725 137.172L59.8228 137.511L59.723 132.95L63.3582 132.025L64.0917 132.188L64.0836 131.494L66.277 132.146V131.807L65.6669 131.699L65.7084 131.114L66.9774 130.379L66.944 127.938L67.6704 127.923L67.6787 128.635L70.2339 128.417L70.4063 127.887L69.8378 127.189L69.1125 127.203L69.0875 125.803L69.8129 125.79L71.6846 127.696L72.9534 127.491L72.7481 126.441L68.3456 125.12L67.942 123.022L68.6674 123.009L68.4607 121.255L70.2495 119.13L70.4063 117.726L71.141 117.903L71.841 116.666L70.0359 117.21L68.9226 116.531L67.8269 116.721L67.1256 118.135L63.8368 118.191L63.8618 118.898L62.7566 118.911L62.1382 115.424L62.5014 115.056L62.2948 114.024L61.5862 114.039L61.1828 112.987L60.0861 112.661L60.2429 111.243L62.6084 110.685L63.1446 110.169L62.9465 109.462L60.0362 110.034L57.151 112.006L57.7443 114.8L56.5005 116.568L55.767 116.582L55.4289 117.987L49.5843 118.256L48.4796 117.224L47.0207 117.429L47.0041 116.721L44.7942 115.726L44.2919 117.824L46.509 119.186L46.1627 120.232L47.0775 120.572L47.0861 121.255H47.8278L48.2242 122.641H48.9496L48.4048 123.353L48.9827 124.915L49.7243 125.078L49.5512 125.79L50.6967 128.565L50.3512 129.617L50.5897 132.597L51.505 132.746L51.34 133.806L50.2348 133.82L50.8045 134.518L49.5843 138.028L51.4062 138L52.3785 140.436L50.038 142.221L51.1582 143.952L50.0699 144.319L49.0064 146.09L48.9577 146.41L48.5457 146.884L47.5725 147.517L47.5477 148.406L47.1523 149.094L46.9375 149.609L47.3495 149.838L48.7095 149.763L49.0893 149.41L49.6414 149.349L50.1446 148.865L51.4882 148.591L53.3681 147.197L53.6972 147.703L53.0634 148.042L51.2983 149.972L51.0765 151.157L50.0699 151.492L49.6248 152.022L49.4682 152.594L50.4166 153.412Z" fill="url(#paint0_linear_14_2)"/>
<path d="M87.7505 107.648L87.3719 106.955L86.6547 106.969L87.0002 106.085L89.1851 106.043L89.5556 106.56L88.4754 106.602L88.4838 107.28L89.9439 107.434L90.2976 106.546H91.0238L91.1793 104.788L90.4292 104.095L90.5536 100.253H91.2622V99.1793L91.9957 99.5177L91.6089 98.4853L92.3343 98.4717L92.3008 96.0201L93.3728 95.8301L93.7678 96.6856H94.4931L94.3044 95.6388L96.4635 94.1923L96.6285 93.5131L98.4504 93.1181L98.4419 92.4105L99.6953 91.6908L100.932 88.5272L100.207 88.5555L100.19 87.8344L102.374 87.4531L102.242 90.2578L100.289 93.4294L101.386 93.4158L101.716 91.6624H102.086L102.102 92.3552H102.465L102.449 91.6491L103.182 91.6342L103.298 87.7779L102.712 86.0483L103.454 86.0338L103.413 84.2804H103.776L102.654 82.5498L101.559 82.5645L101.204 83.6102L98.2854 83.3127L98.3103 84.0199L97.5601 84.0335L96.7033 86.8385L96.8847 87.5324L96.1585 87.5593L96.1834 88.5972L93.6362 89.3318L93.4712 90.3927L94.0409 91.0898L93.298 91.1046L92.5976 92.8576L91.8806 92.8712L90.479 96.4017L87.215 98.1968L85.8298 101.727L84.3714 102.095L84.5601 102.803L82.9694 105.267L81.8728 105.648L82.0795 106.68L83.3564 107.174L85.9118 106.629L85.9286 107.322L87.7505 107.648Z" fill="url(#paint1_linear_14_2)"/>
<path d="M73.6629 116.461L74.7585 115.903L74.3633 114.866L75.1134 115.21L75.0636 113.113L75.7983 113.099L75.6416 114.498L76.565 115.005L79.1121 114.089L79.2689 113.029L80.1674 112.676L80.7024 111.611L80.5043 110.918L79.7876 110.932L81.2308 110.197L80.4226 106.369L79.6972 106.383L79.714 107.076L78.6256 107.09V107.802L79.3591 107.774L79.3506 107.434H79.714L79.3756 108.834L77.5786 109.555V110.266L75.7649 111.002L75.4268 112.401L74.3301 112.415L73.9928 114.173L72.8963 114.187L72.9131 115.591L71.8161 115.261L71.8328 115.601L72.4344 115.726L72.3846 116.298L73.6629 116.461Z" fill="url(#paint2_linear_14_2)"/>
<path d="M88.0387 184.622L89.8774 184.254L89.8357 182.855L90.1987 182.842V182.502L88.015 183.237L88.0387 184.622Z" fill="#FEFEE9" stroke="#0978AB" stroke-width="4.06685" stroke-linecap="round" stroke-linejoin="round"/>
<path d="M44.9592 151.985L45.364 151.558L45.5203 151.349L46.0308 151.32L46.4842 151.437L46.8725 151.246L46.3277 150.283L45.8908 150.385L45.3959 150.506L44.7856 150.047L44.4319 149.865L44.3821 150.725L44.349 151.543L44.9592 151.985Z" fill="url(#paint3_linear_14_2)"/>
<path d="M44.0689 154.287L44.3408 153.886L44.209 153.114L44.5058 152.417L44.1686 152.059L43.9455 152.803L43.5004 152.952L43.4339 153.677L43.5584 154.179L43.7308 154.347L44.0689 154.287Z" fill="#FEFEE9" stroke="#0978AB" stroke-width="4.06685" stroke-linecap="round" stroke-linejoin="round"/>
<path d="M110.453 192.653L110.437 191.961H110.065L110.09 192.668L110.453 192.653Z" fill="#FEFEE9" stroke="#0978AB" stroke-width="4.06685" stroke-linecap="round" stroke-linejoin="round"/>
<path d="M209.9 92.7365L209.876 92.3836L210.61 92.3699L209.86 91.332L209.126 91.3457L208.788 92.7501L209.9 92.7365Z" fill="#FEFEE9" stroke="#0978AB" stroke-width="4.06685" stroke-linecap="round" stroke-linejoin="round"/>
<path d="M310.526 35.1684L310.173 35.1909L310.518 34.8093L310.526 35.1684ZM303.57 33.87L302.827 33.8836V33.5292L303.57 33.87ZM312.596 27.424L312.942 26.5535L314.047 26.3634L314.03 25.3107L312.933 25.3255L312.942 26.0238L309.636 25.3672L309.249 23.9806L307.064 24.5388L303.397 23.7193L303.372 23.012L301.929 23.0358L301.945 24.4415L300.115 23.9389L299.39 24.4835L299.358 22.3703L297.536 22.7516L298.088 23.4455L298.681 25.8836L299.415 25.8743L299.423 26.5818L303.083 27.2191L303.1 27.9175L304.196 27.9037L303.842 28.9643L302.762 28.9779L302.745 28.2853L298.343 27.6571L298.368 28.6951L295.434 28.3917L295.409 26.6372L293.207 26.8378L292.474 26.3349L293.199 26.3214V25.2745L291.749 26.6894L292.499 27.0289L288.838 27.7782L288.83 27.0844L287.371 27.2891L281.519 26.6746L278.197 25.493L278.79 27.2338L277.883 28.653L275.699 29.0483L275.691 28.3408L270.934 27.8757L268.395 29.141L268.049 30.5467L261.883 33.6276L253.886 36.3637L254.135 39.8676L255.28 42.9997L254.761 44.7585H255.123L255.238 43.8328L256.195 43.5068L256.582 44.3908L261.314 43.4366L262.764 42.539L262.773 43.2466L264.051 42.8786L264.208 41.818L264.95 41.9797L266.565 40.3841L266.343 38.2853L265.625 38.2989L265.609 37.946L268.527 37.1967L268.519 36.5038L270.704 35.9402L276.391 37.4296L277.513 38.8161L278.617 50.7146L280.802 50.495L281.684 48.2063L281.544 39.4579L282.071 38.3975L290.108 38.0953L297.808 40.0861L298.195 40.9567L299.291 41.1197L300.058 42.3204L305.194 44.5256L306.694 46.7868H305.969L306.381 49.2397L307.831 48.8853L311.038 55.4785L310.881 57.2229L312.357 57.1957L312.703 55.4547L314.517 55.7671L314.212 59.2796L316.025 58.5447L316.009 57.8511L316.742 58.0139L317.831 57.4698L317.872 59.9222L318.606 59.5683L318.976 60.4387L319.718 60.6015L320.039 58.4941L319.314 58.5077L318.185 56.065L315.234 55.0598L315.192 52.2643L315.927 52.2405L315.176 51.217L316.082 50.8493L315.894 49.7978L314.055 50.0026L313.322 49.4853L313.668 48.7789L310.725 47.4287L310.156 46.3771L310.807 41.4727L313.535 40.0308L313.544 40.7236L317.559 39.7976L319.941 41.3245L320.146 42.032L320.873 42.0171L321.226 40.617L322.488 39.8961L323.551 37.7829L324.013 32.5197L326 31.4308L325.81 30.3838L325.077 30.3974L325.242 29.3459L324.293 27.9593L322.851 28.6803L324.112 27.2611L323.906 25.8743L322.801 25.3528L318.787 25.5857L318.771 24.892L315.127 25.6412L314.97 27.7409L315.902 28.0804L315.539 28.7879L313.717 28.8162L313.742 30.2355L314.467 30.2074L314.855 31.0775L315.951 31.0631L316.297 30.1789L319.569 29.4444L319.232 30.4913L315.234 32.129L314.129 31.9615V31.2542L313.041 32.1517L310.486 32.3712L310.461 30.97L309.736 30.9836L310.033 34.7018L306.487 33.6549L304.304 34.2142L304.295 33.5023L303.677 33.4092L303.545 32.4686L305.367 32.4406L306.232 29.6209L305.68 28.2286L306.768 28.7461L312.596 27.424Z" fill="url(#paint4_linear_14_2)"/>
<path d="M267.9 21.7974H267.538V21.4577L267.9 21.7974ZM274.191 26.0748L276.556 25.5156L276.168 24.4835L275.591 22.0306L272.674 22.4256L272.682 23.1196L268.642 21.9605L267.892 20.0385L269.689 19.494L270.052 18.61L271.874 18.9349L271.536 19.9875L269.697 20.0102L269.714 20.7221L270.81 21.0481V20.3544L275.566 21.1555L277.751 20.0666L279.21 20.2286L278.452 18.4845L280.999 17.9117L283.192 18.0643L283.546 17.1759L288.261 15.5278L288.616 14.6585L291.197 15.1329L291.188 14.4392L292.268 13.7179L291.534 13.7316V13.3877L292.994 13.3502L292.985 12.652L296.274 13.1318L297.024 13.8243L299.778 14.6585L299.967 15.3514L304.023 17.2177L305.111 16.8648L306.454 17.1386L306.414 18.4187L308.309 18.8557L308.441 19.4376L306.257 19.4656L305.919 21.2248L309.216 21.8812L309.241 22.928L314.368 23.897L313.206 20.4199L311.385 20.0939L311.376 19.3865L308.564 18.61L308.416 17.315L306.702 16.8917L307.114 16.3055L306.884 14.207L306.174 14.2208L305.787 13.1691L303.594 13.1964L303.759 12.5036L303.215 11.8096L302.465 11.8232L302.267 10.4177L300.585 7.99318L298.739 7.32297L298.731 6.26126L296.909 6.2897L296.134 4.2045L295.037 3.87428L293.529 1.43495H293.901V1.08066H294.237L293.867 -0.320602L292.4 -0.296832L292.417 0.75469L290.578 0.252273L289.845 0.7967L290.62 2.54192L289.16 2.5521L289.506 0.7967L286.596 2.25329L286.613 2.94699L287.891 3.27764L287.718 3.98492L286.984 3.82206L283.365 6.15034L283.374 6.84743L282.639 6.86229L282.664 7.555L281.568 7.92272L281.23 9.32865L280.125 9.35709L279.433 11.1113L277.966 11.4792L277.265 12.8986L270.019 16.8648L270.027 17.5572L267.497 18.6521L267.505 19.3445L265.666 19.5494L262.798 21.5235V22.2207L261.701 22.249L261.709 22.9427L259.542 24.0317V24.7301L258.454 25.0968L258.462 25.7905L256.293 26.1721V26.8795L252.296 28.6951L252.313 29.3876L251.571 29.2248L245.792 33.0132L245.454 34.7438L246.93 35.2464L247.3 36.1213L245.487 36.6803L245.116 36.3364L244.02 36.5265L243.69 38.2853H242.956L242.61 39.3606L243.706 39.5148L244.432 38.788L247.712 38.5742L247.877 37.8623L249.517 37.141L249.509 36.787L248.414 36.8014L249.114 34.6882L250.573 34.8513L251.644 33.5859L253.483 33.5712L253.491 34.2785L255.305 33.544L254.918 32.5106L256.747 32.4823L256.739 31.7704L264.026 29.742L264.726 28.1506L265.453 28.3123L265.84 29.1828L266.928 28.8162L266.911 28.1222L268.008 28.2706L269.45 26.6747L270.909 26.8285L271.255 25.9536L272.542 25.5857L272.706 24.5252L274.001 25.2044L274.191 26.0748Z" fill="url(#paint5_linear_14_2)"/>
<path d="M309.868 62.141L309.851 61.4482L309.134 61.4617L309.661 60.4013L309.448 58.6569H309.084V58.3025H309.448L309.431 57.5906L308.334 57.9586V57.2646L304.691 58.3683L303.99 60.4804L308.359 59.3634L308.211 61.4766L309.868 62.141Z" fill="url(#paint6_linear_14_2)"/>
<path fill-rule="evenodd" clip-rule="evenodd" d="M107.625 176.265L107.213 174.866L106.496 175.233L106.504 175.926L107.625 176.265Z" fill="#FEFEE9" stroke="#0978AB" stroke-width="4.06685" stroke-linecap="round" stroke-linejoin="round"/>
<path fill-rule="evenodd" clip-rule="evenodd" d="M106.9 178.376L108.187 177.655L107.988 177.125L108.705 175.898L110.172 176.582L110.345 175.87L113.074 174.429H112.687V174.076H113.049V173.722L110.848 173.941L109.735 173.081L109.752 173.778L109.018 173.802L109.043 174.485L106.116 174.541L106.133 175.233L105.391 174.894L105.408 175.6L104.682 175.614L106.521 176.632L106.9 178.376ZM100.997 194.559L100.965 192.83L99.5138 193.183L99.5388 193.89L100.997 194.559ZM74.1566 163.514L74.1496 163.17L74.5115 163.161V162.803L73.1847 162.603L73.0613 163.542L74.1566 163.514ZM96.4145 183.261L96.5881 182.391L96.0266 181.699L95.681 183.098L96.4145 183.261ZM109.101 177.641L109.085 176.935L108.483 177.125L109.101 177.641ZM97.7084 194.271V193.917L96.6032 193.931L97.7084 194.271ZM63.1034 178.389L62.7317 178.05L62.74 178.403L63.1034 178.389ZM113.429 175.121L113.412 174.768L113.074 175.121H113.429ZM222.051 77.4789L219.858 77.3441L218.778 78.5869L220.608 79.2662L220.373 80.2679L220.278 80.6708L219.183 80.6846L219.57 81.7314L218.828 81.745L218.49 82.8056L217.023 82.466L217.031 83.1642L216.297 83.1735L217.237 84.5643L217.831 86.7411L216.718 87.3128L217.196 88.4719L216.429 88.8341L215.308 88.8021L215.679 89.4814L215.497 90.2431L213.89 90.1322L214.591 90.9551L218.763 91.3831L219.091 91.7597L218.82 92.62L218.531 92.7276L218.004 92.7695L217.311 92.6901L216.553 92.3641L214.104 92.2025L211.697 91.4859L211.285 89.9035L210.378 89.5787L210.181 88.5272L210.915 88.5136L212.29 83.2436L214.089 82.1683L214.072 81.4618L214.822 81.4474L214.885 80.2679L214.954 78.9958L214.394 78.1354L212.926 78.3256L212.942 79.0328L211.483 79.0475L211.822 77.2888H212.547L212.544 77.1665L212.522 75.5355L213.239 75.5206L214.252 70.2508L216.083 70.2225L216.058 68.8312L217.154 68.8031L216.734 65.6587H217.468L217.426 63.5467L226.882 60.769L228.704 59.8805L229.388 58.4657L233.757 56.4747L234.862 56.1067L235.941 56.2551L234.277 54.8833L234.07 53.4922L238.084 52.3749L238.059 51.3237L240.228 50.2346L240.013 47.7967L240.896 46.0242L241.885 46.2424L242.593 45.8895L242.148 44.9634L242.305 42.8502L243.03 42.8368L243.014 42.1429L244.852 42.2924L245.578 41.748L245.265 45.0834L242.123 46.4757L243.13 48.453L244.588 48.4249L244.613 49.4582H245.693L245.71 50.1553L248.282 50.2913L249.749 51.147L251.076 53.9291L250.186 55.3441L250.919 55.3292L250.936 56.3809L251.669 56.3672L251.331 58.1261L253.17 58.4521L253.541 59.4845H254.275L252.131 62.141L251.406 62.6761L252.865 62.6625L253.261 64.4022L254.711 64.0209L254.761 66.8313L256.582 66.2721L260.614 67.2636L264.306 69.4867L264.331 70.5336L268 71.5298L268.008 72.2226L269.837 72.1953L269.813 71.5013L271.642 71.4733L272.212 72.167L272.039 72.8641L273.127 72.8508L272.599 73.9114L273.011 76.0097L272.571 77.1665L272.476 77.4145L273.209 77.7538L273.202 77.1665L273.201 77.0612L275.394 76.8564L275.732 77.1665L276.136 77.5356L278.691 77.3172L278.532 77.1665L278.09 76.7443L277.578 76.9912L278.303 76.1071L281.964 76.2146L282.31 75.1678L283.036 75.154L283.027 74.4691L285.211 74.0742L285.236 75.1257L288.146 74.7307L288.83 71.9111L292.561 69.6375L301.442 62.5232L296.824 67.9436L291.023 72.2371L290.355 75.7391L284.207 77.1665L283.077 77.4278L281.287 79.7315L280.448 80.2679L278.757 81.3501L276.918 81.0241L275.848 82.0845L274.743 82.1127L273.308 83.5311L266.383 84.3314L264.389 85.5878L264.224 86.294L262.039 86.6753L259.154 89.3318L258.058 89.1837L257.885 89.89L251.009 94.1922L250.854 94.9042L250.111 94.7366L248.85 95.6252L248.859 96.6856L247.227 97.0536L247.062 98.104L247.432 98.7977L245.808 99.5326L246.204 101.616L245.116 101.644L244.415 103.755L242.956 103.606L239.296 104.002L237.491 104.384L236.435 106.848L235.332 106.862L234.07 108.113L233.905 108.806L228.489 112.224L226.651 112.252L223.765 114.052L222.67 114.066L220.155 116.554L218.144 117.456L217.633 118.869L216.916 118.898L217.113 120.288L215.11 121.185L214.739 120.139L210.717 120.367L210.585 123.882L209.093 124.371L209.356 125.993L207.535 126.375L207.361 127.082L205.012 128.333L203.19 128.212L203.009 128.891L201.377 129.617L201.212 130.323L199.035 131.75L198.871 132.462L197.965 132.829L197.445 134.052L196.719 134.243V134.935L195.261 134.61L195.268 135.676L194.189 135.689L194.016 136.721L190.24 139.948L190.743 137.837L189.465 137.688L188.377 138.219V138.572L189.869 138.901L189.193 142.766L184.47 144.592L184.123 145.463L183.381 145.3L183.217 146.006L182.311 146.374L181.791 147.778L180.884 148.145L180.027 150.948L178.567 152.022L178.048 153.44L176.779 154.161L176.622 155.212L175.888 155.221L174.825 156.816L173.366 157.359L171.602 160.53L170.506 160.558L169.434 162.152L151.315 170.306L151.331 170.66H150.969L150.227 170.673L150.243 171.013L143.311 174.672L140.656 176.074L140.466 176.785L140.059 176.857L137.211 177.357L134.334 179.849L127.278 183.641L127.104 184.338L126.371 184.353L126.379 185.059H126.016L126.008 184.367L125.464 184.72L125.662 185.412L118.416 188.68L118.786 189.372L118.07 189.386L117.683 188.517L115.325 189.428L115.159 190.135L114.417 190.148L114.649 191.538L111.912 192.286L111.524 191.413L104.443 193.105L104.658 194.857L103.561 194.87L103.544 194.164L100.28 194.926L100.14 194.694L99.192 195.47L98.4503 195.307L98.4667 196L97.7168 194.968H97.3547L97.3701 195.674L96.2496 194.285L96.2581 195.005L95.5246 194.829L94.0728 195.376L93.3145 193.825L84.9149 193.606L84.1729 192.913L76.3586 194.271L76.5485 194.968L67.3972 194.248L66.3256 194.791L66.3019 193.727L64.4715 193.063L64.4551 192.366L59.6659 190.177L58.9156 189.14L57.4561 188.815L57.069 187.946L56.3437 187.959L55.214 186.393L53.7552 185.905L53.17 184.162L51.8834 183.479L51.6863 182.786L50.7465 181.397L50.013 181.41L49.9963 180.717L49.2628 180.746L48.8829 179.329L48.1496 179.356L48.141 178.649L47.4161 178.663L46.9792 175.163L46.2538 175.192L43.2855 163.337L36.9963 148.744L36.2791 148.759V148.047L38.0847 148.377L38.0761 147.667L36.9628 146.988L43.1287 144.087L43.5171 145.476L40.4419 146.932L39.1979 149.057L40.6649 149.028L41.5552 149.823L41.2334 150.99L42.5035 151.572L42.47 152.701L41.9101 152.878L42.0084 154.138L42.577 154.905L43.707 155.807L44.927 156.555L45.4705 156.644L45.504 156.123L45.6604 155.9L45.3802 155.412L44.3989 155.309L44.184 154.938L44.6055 154.417L45.0089 153.886L44.6137 153.217L44.8355 152.743L45.0339 152.417L45.3802 152.344L46.0888 152.729L46.9624 152.701L47.2761 151.883L48.3808 152.05L48.6028 152.599L48.7678 152.748L49.9216 153.292L50.8866 153.882L51.34 154.091L52.1886 154.817L52.7497 155.834L53.582 156.518L54.2501 157.104L54.7354 158.005L55.4288 157.182L55.7989 158.219L61.6445 158.475L61.6528 159.172L62.378 158.814L62.3948 159.512L63.4901 159.145L63.5151 159.851L64.2236 159.838L64.6116 161.228L71.2145 162.71L73.0363 162.139L69.3841 162.194L69.3678 161.497L73.7368 160.897L80.7024 162.181L82.1612 161.989L83.6616 164.058L84.3795 164.045L84.0414 164.928L79.3093 166.057L76.3836 165.583L76.7703 166.968L76.7871 167.679H76.4155L75.6582 165.597L73.8363 165.221L70.8764 164.616V163.924L69.4175 163.77L69.0304 162.887L67.2085 163.282V162.589L65.3868 163.31L65.3953 164.017H65.0319L65.0154 162.971L63.1851 162.655L63.1683 161.947L62.4434 162.655L63.9268 163.337L64.1583 165.788L63.7951 166.141L64.9902 171.366L64.0836 171.733L64.48 173.476L63.7466 173.49L64.5368 176.977L63.2266 177.93L64.9415 178.715L65.7 180.797L64.9737 180.811L64.9902 181.509L65.7084 181.317L69.2608 182.377L69.0055 181.452L71.1895 181.41L71.2063 182.107L72.3028 182.447L72.3112 183.14L71.2312 183.493L70.8514 182.637L69.3926 182.842L70.4893 182.828L71.2477 184.91L71.9896 184.883L71.6511 186.295L73.1099 186.626L73.1181 187.317H73.86L74.1983 185.905L76.3668 185.166L76.3836 185.878L78.9389 185.998L81.1393 186.324L82.9444 185.412L82.9612 186.105L84.4033 186.096V185.384L85.8632 185.715L85.8547 185.017L89.8774 185.128L94.2296 183.832L94.5679 181.712L97.1149 181.317L97.1399 182.731L98.6153 183.237L102.234 181.778L106.248 181.889L106.603 180.825L102.192 179.849L102.184 179.137H102.919L103.298 179.835L103.874 178.537L102.91 178.784L102.894 178.091L101.797 178.106L101.814 178.812L101.204 178.934L101.632 179.505L101.302 180.909L100.05 181.982L100.034 181.29L100.775 180.922L99.827 180.583L99.6371 179.885L99.275 179.9L99.2917 180.597L97.4617 180.62L97.453 179.927L98.5415 179.561L98.5252 178.854L99.9835 178.663L100.726 179.003L100.701 177.776L102.152 177.218L103.611 177.385L103.958 176.321L104.691 176.306L103.586 175.628L104.971 172.458L103.536 173.179L103.874 171.774L104.963 171.231L106.043 170.687L105.671 169.813L103.833 169.678L103.826 168.632L105.276 168.074L106.373 168.237L106.356 167.531L116.569 167.024L116.561 166.318L123.436 162.887L125.999 162.668L125.983 161.962H126.709L126.321 160.897L132.504 159.238L134.309 158.503L137.557 156.011L139.016 156.151L139.008 155.453L139.741 155.439L139.733 154.746L140.458 154.733L141.168 153.328L142.618 152.948L142.965 151.901L143.311 151.658L147.301 148.852L148.759 149.177L150.565 148.28L150.919 147.573L149.641 147.248L149.411 144.44L150.508 144.426L150.895 145.816L152.353 145.801L151.966 144.755L154.917 146.28L160.358 144.086L161.826 144.592L162.881 142.128L164.323 141.404L164.306 139.664L167.2 138.558V137.865L169.367 137.116L169.747 138.162L171.594 138.14L171.552 137.088L172.294 137.075L171.511 134.299L175.138 133.183V132.829L168.939 133.276V134.326L158.742 135.019L158.412 136.6L156.929 136.093L153.648 136.679L153.673 137.73L149.279 137.088L148.891 135.698L149.254 135.331L147.045 134.679L147.432 136.08L146.707 135.917L143.715 132.281L143.311 132.335L140.805 132.676L141.192 134.081L140.059 134.186L139.008 134.284L135.752 135.917L135.727 135.21L132.8 134.555L133.337 133.508L132.718 129.668L135.636 129.617L134.877 128.225L136.329 127.506L136.337 128.212H137.079L137.457 129.602L138.926 129.56L138.356 128.863L138.703 127.817L138.513 126.771L135.587 126.985L133.79 128.77L132.33 128.975V128.622L133.782 128.24L133.947 127.189L133.55 125.45L133.18 125.106L133.345 124.059L131.523 123.911L130.765 122.697L132.215 121.8L134.771 122.274L135.166 123.679L136.642 124.343L136.601 122.958L140.059 122.891L140.261 122.888V122.548L140.059 122.55L138.801 122.563L138.785 121.864L135.859 121.39L134.737 120L131.828 120.572L131.473 121.813H131.11L130.921 121.293L131.283 120.94L131.062 119.186L130.343 119.195L127.854 123.269L127.129 123.432L127.146 124.153L126.404 124.167L126.428 124.864L124.961 124.711L124.582 124.195L125.307 124.18L126.561 122.766L125.975 120.33L120.633 118.311L120.435 117.605L121.408 117.126L120.782 115.861L124.062 115.805L123.675 114.582L121.854 114.787L121.474 113.735L121.969 113.968L125.506 114.024L125.481 112.973H125.843L125.851 113.671L127.673 112.945L127.689 113.642L133.502 112.499L133.517 113.192L135.347 113.164L135.372 115.261L137.557 114.187L137.754 114.88L137.219 115.591L138.316 115.754L138.669 115.387L140.059 115.633L142.338 116.037L142.7 115.671L143.311 115.731L151.851 116.582L156.937 115.452L157.679 115.782L158.387 115.071L159.864 115.4L162.031 114.484L162.048 115.196L167.15 114.582L167.875 113.876L183.151 110.662L183.143 109.95L184.981 110.457L186.061 109.379H187.148L188.962 108.29H189.325L191.147 107.555L195.136 105.923L195.491 104.858L201.64 101.956L201.995 100.909L204.881 99.2856L205.614 99.4668L206.331 98.0351L207.411 97.6807L208.111 95.9094L208.853 95.8945L208.466 94.8488L210.633 94.1277L210.997 93.4158L210.263 93.4293V93.076L211.352 93.0625L210.972 92.3699L211.962 92.4583L212.9 92.5363L213.552 92.886L214.129 93.0718L214.64 92.8158L216.569 92.8532L216.981 93.1092L217.411 93.3365L217.823 93.6162H218.548L219.578 93.2809L219.24 92.8338L219.364 92.0994L224.145 92.8576L224.153 93.5551L227.063 92.6438L235.1 92.6947L235.109 93.3931L235.834 93.3783L235.825 92.3279L236.74 92.6676L236.947 93.718L243.896 94.6573L243.319 92.8996L243.681 92.5601L242.898 89.4159L245.008 84.4853L248.232 80.5871L248.815 80.2679L250.219 79.4982L250.211 78.4467L251.299 78.2565L251.644 77.3861L252.186 77.1665L253.483 76.638L253.458 75.9588L255.618 74.3483L256.352 74.3347L257.415 72.7386L255.222 72.4275L255.206 71.7199L253.013 71.4087L252.238 69.6643L251.901 69.6779L251.546 70.7252L250.449 71.078L250.424 70.0459L249.699 70.0595L250.021 66.8959L251.101 66.8823L250.729 66.1883L249.271 66.2168L249.229 64.1183L246.303 63.448V63.1085L246.665 63.0952L246.649 62.7692L247.383 62.7419L246.617 61.3555H246.262L245.924 62.4159L240.434 62.495L240.442 63.1925L239.362 63.5467L239.371 64.2675L241.193 63.8862L240.846 64.9378L237.211 66.0536L236.51 68.166L233.592 68.562L233.625 69.6079L230.681 69.2966L230.336 70.3572L227.426 70.752L227.269 72.8508L224.928 74.6323L224.227 76.4048L221.68 76.7864L222.051 77.4789Z" fill="#E02308" stroke="#0978AB" stroke-width="4.06685" stroke-linecap="round" stroke-linejoin="round"/>
<path d="M45.2214 170.567L52.6656 166.8L53.4252 168.031L63.68 163.25" stroke="#646464" stroke-width="5.17597" stroke-linecap="round" stroke-linejoin="round"/>
<path d="M103.712 175.493L104.851 175.638" stroke="#646464" stroke-width="5.17597" stroke-linecap="round" stroke-linejoin="round"/>
<path d="M112.979 174.478L113.967 177.086L116.321 176.869L122.626 186.866" stroke="#646464" stroke-width="5.17597" stroke-linecap="round" stroke-linejoin="round"/>
<path d="M146.782 149.414L158.1 167.307" stroke="#646464" stroke-width="5.17597" stroke-linecap="round" stroke-linejoin="round"/>
<path d="M175.192 133.26L189.168 126.016L194.258 135.795" stroke="#646464" stroke-width="5.17597" stroke-linecap="round" stroke-linejoin="round"/>
<path d="M176.027 132.825L171.469 113.122" stroke="#646464" stroke-width="5.17597" stroke-linecap="round" stroke-linejoin="round"/>
<path d="M201.93 101.097L213.78 120.148" stroke="#646464" stroke-width="5.17597" stroke-linecap="round" stroke-linejoin="round"/>
<path d="M209.526 90.3031L210.969 91.5346" stroke="#646464" stroke-width="5.17597" stroke-linecap="round" stroke-linejoin="round"/>
<path d="M244.772 85.015L253.356 92.6936" stroke="#646464" stroke-width="5.17597" stroke-linecap="round" stroke-linejoin="round"/>
<path d="M255.407 74.656L264.446 85.4496" stroke="#646464" stroke-width="5.17597" stroke-linecap="round" stroke-linejoin="round"/>
<path d="M256.774 73.7868L258.445 75.308L264.674 70.5994" stroke="#646464" stroke-width="5.17597" stroke-linecap="round" stroke-linejoin="round"/>
<path d="M239.911 44.7383L244.468 47.2737" stroke="#646464" stroke-width="5.17597" stroke-linecap="round" stroke-linejoin="round"/>
</g>
</g>
<defs>
<linearGradient id="paint0_linear_14_2" x1="58.7642" y1="153.394" x2="58.7642" y2="109.438" gradientUnits="userSpaceOnUse">
<stop offset="1e-05" stop-color="#FFA801"/>
<stop offset="1" stop-color="#FFCC01"/>
</linearGradient>
<linearGradient id="paint1_linear_14_2" x1="92.9325" y1="107.638" x2="92.9325" y2="82.5359" gradientUnits="userSpaceOnUse">
<stop offset="1e-05" stop-color="#FFA801"/>
<stop offset="1" stop-color="#FFCC01"/>
</linearGradient>
<linearGradient id="paint2_linear_14_2" x1="76.57" y1="116.457" x2="76.57" y2="106.363" gradientUnits="userSpaceOnUse">
<stop offset="1e-05" stop-color="#FFA801"/>
<stop offset="1" stop-color="#FFCC01"/>
</linearGradient>
<linearGradient id="paint3_linear_14_2" x1="45.6232" y1="151.984" x2="45.6232" y2="149.864" gradientUnits="userSpaceOnUse">
<stop offset="1e-05" stop-color="#FFA801"/>
<stop offset="1" stop-color="#FFCC01"/>
</linearGradient>
<linearGradient id="paint4_linear_14_2" x1="290.299" y1="60.5858" x2="290.299" y2="22.3491" gradientUnits="userSpaceOnUse">
<stop offset="1e-05" stop-color="#FFA801"/>
<stop offset="1" stop-color="#FFCC01"/>
</linearGradient>
<linearGradient id="paint5_linear_14_2" x1="278.843" y1="39.4984" x2="278.843" y2="-0.342652" gradientUnits="userSpaceOnUse">
<stop offset="1e-05" stop-color="#FFA801"/>
<stop offset="1" stop-color="#FFCC01"/>
</linearGradient>
<linearGradient id="paint6_linear_14_2" x1="306.958" y1="62.139" x2="306.958" y2="57.2619" gradientUnits="userSpaceOnUse">
<stop offset="1e-05" stop-color="#FFA801"/>
<stop offset="1" stop-color="#FFCC01"/>
</linearGradient>
<clipPath id="clip0_14_2">
<rect width="406.552" height="240" fill="white"/>
</clipPath>
</defs>
</svg>
