<svg width="42" height="42" viewBox="0 0 42 42" fill="none" xmlns="http://www.w3.org/2000/svg">
<path d="M22.8559 21L26.5676 17.2883C26.8067 17.0407 26.939 16.7092 26.936 16.365C26.933 16.0209 26.795 15.6917 26.5516 15.4484C26.3083 15.205 25.9791 15.067 25.6349 15.064C25.2908 15.061 24.9593 15.1933 24.7117 15.4324L21 19.1441L17.2882 15.4324C17.1672 15.307 17.0223 15.207 16.8622 15.1382C16.7021 15.0695 16.5298 15.0332 16.3556 15.0317C16.1813 15.0302 16.0085 15.0634 15.8472 15.1294C15.6859 15.1954 15.5393 15.2929 15.4161 15.4161C15.2928 15.5393 15.1954 15.6859 15.1294 15.8472C15.0634 16.0085 15.0302 16.1813 15.0317 16.3556C15.0332 16.5299 15.0694 16.7021 15.1382 16.8622C15.207 17.0223 15.307 17.1672 15.4324 17.2883L19.1441 21L15.4324 24.7117C15.307 24.8328 15.207 24.9777 15.1382 25.1378C15.0694 25.2979 15.0332 25.4701 15.0317 25.6444C15.0302 25.8187 15.0634 25.9915 15.1294 26.1528C15.1954 26.3141 15.2928 26.4607 15.4161 26.5839C15.5393 26.7071 15.6859 26.8046 15.8472 26.8706C16.0085 26.9366 16.1813 26.9698 16.3556 26.9683C16.5298 26.9668 16.7021 26.9305 16.8622 26.8618C17.0223 26.793 17.1672 26.693 17.2882 26.5676L21 22.8559L24.7117 26.5676C24.9593 26.8067 25.2908 26.939 25.6349 26.936C25.9791 26.933 26.3083 26.795 26.5516 26.5516C26.795 26.3083 26.933 25.9791 26.936 25.635C26.939 25.2908 26.8067 24.9593 26.5676 24.7117L22.8559 21Z" fill="white"/>
<path d="M21 36.75C18.9317 36.75 16.8836 36.3426 14.9727 35.5511C13.0619 34.7596 11.3256 33.5995 9.86307 32.1369C8.40055 30.6744 7.24041 28.9381 6.4489 27.0273C5.65738 25.1164 5.25 23.0683 5.25 21C5.25 18.9317 5.65738 16.8836 6.4489 14.9727C7.24041 13.0619 8.40055 11.3256 9.86307 9.86307C11.3256 8.40055 13.0619 7.24041 14.9727 6.4489C16.8836 5.65739 18.9317 5.25 21 5.25C25.1772 5.25 29.1832 6.90937 32.1369 9.86307C35.0906 12.8168 36.75 16.8228 36.75 21C36.75 25.1772 35.0906 29.1832 32.1369 32.1369C29.1832 35.0906 25.1772 36.75 21 36.75V36.75ZM21 39.375C25.8734 39.375 30.5471 37.4391 33.9931 33.9931C37.4391 30.5471 39.375 25.8734 39.375 21C39.375 16.1266 37.4391 11.4529 33.9931 8.00691C30.5471 4.56093 25.8734 2.625 21 2.625C16.1266 2.625 11.4529 4.56093 8.00691 8.00691C4.56093 11.4529 2.625 16.1266 2.625 21C2.625 25.8734 4.56093 30.5471 8.00691 33.9931C11.4529 37.4391 16.1266 39.375 21 39.375Z" fill="white"/>
</svg>
