<?xml version="1.0" encoding="UTF-8"?>
<!-- Generated by Pixelmator Pro 2.4.2 -->
<svg width="715" height="375" viewBox="0 0 515 375" xmlns="http://www.w3.org/2000/svg" xmlns:xlink="http://www.w3.org/1999/xlink">
    <path id="Path" fill="#e09aa8" fill-opacity="0.25" fill-rule="evenodd" stroke="none" d="M 367.187012 75.184509 L 370.234009 70.192993 L 375.110992 69.881104 L 375.17099 67.946899 L 371.696991 66.199799 L 374.806 61.769897 L 381.510986 57.277496 L 393.335999 51.100494 L 404.48999 41.055115 L 415.705994 33.193512 L 419.729004 31.633698 L 429.968994 23.647308 L 435.699005 18.094208 L 441.246002 10.981293 L 447.279999 7.799225 L 447.584991 3.80603 L 449.901001 3.11969 L 449.35199 5.802612 L 452.826996 5.865021 L 451.05899 3.182068 L 457.519989 0 L 457.946991 5.55304 L 460.567993 7.549652 L 463.615997 12.104401 L 465.809998 12.603607 L 470.686005 17.969391 L 476.537994 27.702911 L 479.220001 26.517395 L 482.145996 30.82251 L 476.537994 32.569611 L 473.795013 32.070404 L 467.089996 27.141296 L 463.799011 26.891693 L 461.908997 24.832703 L 456.789001 23.709686 L 455.691986 25.394287 L 447.523987 28.389191 L 447.707001 29.824188 L 438.381012 34.129395 L 429.359985 35.377289 L 431.309998 37.124298 L 426.067993 40.243988 L 418.692993 39.4953 L 423.203003 34.628601 L 418.692993 33.63031 L 418.631989 36.812408 L 415.705994 36.126007 L 412.049011 38.871307 L 411.011993 41.616699 L 418.936005 45.110687 L 422.777008 42.677399 L 426.43399 44.362 L 427.042999 48.604797 L 425.640991 49.977417 L 419.851013 46.733002 L 419.972992 49.16629 L 417.169006 51.662109 L 407.842987 55.717712 L 405.709015 51.599701 L 405.161011 56.653595 L 398.27301 59.710907 L 393.700989 59.398895 L 388.338013 64.640015 L 383.035004 64.265594 L 381.815002 66.386993 L 378.096985 66.761414 L 378.523987 68.508392 L 375.17099 73.81189 L 367.187012 75.184509 Z"/>
    <path id="path1" fill="#e09aa8" fill-opacity="0.25" fill-rule="evenodd" stroke="none" d="M 477.817993 54.719391 L 479.34201 59.773315 L 477.209015 62.33139 L 475.014008 62.206696 L 473.795013 65.139191 L 477.209015 66.19989 L 480.561005 64.827209 L 481.902008 66.386993 L 484.828003 65.513489 L 488.302002 67.759705 L 487.997986 62.269104 L 498.115997 61.582703 L 504.333008 58.088684 L 504.149994 56.092102 L 498.299011 57.714294 L 495.981995 59.58609 L 493.300995 57.5271 L 497.933014 53.970703 L 496.104004 54.033112 L 496.165009 49.603088 L 501.407013 48.667206 L 509.880005 49.228699 L 511.587006 51.350098 L 509.088013 54.282593 L 511.890991 54.906616 L 515 61.270813 L 511.587006 62.393799 L 509.880005 65.8255 L 510.97699 67.822083 L 509.269989 75.184601 L 505.247009 80.924805 L 500.432007 76.2453 L 493.178986 78.304291 L 492.69101 76.806793 L 489.21701 77.742706 L 486.657013 88.287292 L 488.729004 91.968506 L 492.080994 93.403595 L 497.079987 99.705292 L 495.128998 101.640015 L 495.372986 104.446991 L 501.102997 108.127991 L 504.028015 112.496002 L 502.626007 113.994019 L 499.944 110.062988 L 494.337006 112.932983 L 496.042999 108.877014 L 491.350006 106.380981 L 491.227997 109.563995 L 485.255005 99.642883 L 482.877014 93.590698 L 480.256012 94.027496 L 480.316986 88.848816 L 478.306 85.853882 L 472.209991 81.860718 L 468.919006 81.236816 L 468.674988 79.36499 L 461.604004 75.49649 L 449.352997 72.563995 L 440.94101 72.252106 L 437.283997 73.4375 L 435.454987 76.744385 L 435.394012 84.917999 L 436.065002 94.713806 L 434.967987 96.523193 L 430.945007 96.585602 L 428.993988 74.123901 L 426.190002 70.817017 L 419.181 68.94519 L 415.644989 69.132385 L 404.429993 74.997406 L 409.428009 73.250397 L 411.561005 73.999084 L 411.622009 77.368408 L 405.709991 83.982117 L 401.442993 81.548706 L 396.322998 84.730804 L 391.690002 84.481201 L 389.678986 81.985504 L 387.179993 75.558899 L 387.666992 69.881104 L 395.40799 66.324585 L 400.772003 64.640015 L 412.17099 58.463013 L 414.609009 55.592896 L 418.51001 53.596313 L 428.019012 55.655304 L 431.798004 52.286011 L 431.61499 50.351807 L 440.088013 52.036499 L 449.414001 52.722809 L 452.704987 53.908295 L 456.240997 51.911713 L 460.567993 52.348389 L 462.335999 55.967285 L 466.664001 53.908295 L 472.881012 55.218597 L 475.135986 56.778412 L 477.817993 54.719391 Z"/>
    <path id="path2" fill="#e09aa8" fill-opacity="0.25" fill-rule="evenodd" stroke="none" d="M 22.9797 292.002991 L 22.8578 290.692993 L 29.623699 281.209015 L 25.9055 283.704987 L 19.505301 286.200012 L 18.0424 285.326996 L 19.7491 282.082001 L 26.697901 274.65799 L 25.417801 271.226013 L 28.831301 268.916992 L 28.8922 266.54599 L 24.625401 263.364014 L 27.0026 253.630997 L 25.2959 253.444 L 25.7836 246.018997 L 24.625401 241.714005 L 17.798599 227.113998 L 14.8119 226.490005 L 13.7756 223.807007 L 17.128099 221.373001 L 19.322399 224.242996 L 25.5397 226.613998 L 32.671398 226.677002 L 35.2314 224.181 L 38.9496 217.817001 L 37.608601 214.822006 L 43.033501 210.018005 L 48.031799 209.518005 L 49.068001 211.141006 L 43.460201 211.889008 L 42.7897 215.757996 L 46.203098 218.065994 L 47.787899 220.936996 L 45.654598 222.309006 L 46.8736 226.613998 L 55.4072 225.367004 L 58.333 222.621002 L 62.294998 224.617996 L 57.479599 231.356003 L 56.687199 236.535004 L 58.150101 239.529999 L 64.245499 241.962997 L 62.721699 243.585999 L 57.9673 240.466003 L 60.0397 245.395004 L 54.7976 244.459 L 53.761398 249.014008 L 45.593601 253.630997 L 41.570599 253.630997 L 42.0583 257.25 L 40.839199 262.240997 L 36.694302 270.60199 L 36.267601 276.71701 L 34.6828 278.401001 L 38.340099 279.960999 L 39.376301 285.576996 L 35.048599 286.761993 L 27.3074 291.877991 L 22.9797 292.002991 Z"/>
    <path id="path3" fill="#e09aa8" fill-opacity="0.25" fill-rule="evenodd" stroke="none" d="M 0 283.454987 L 3.47438 282.269989 L 2.31625 280.772003 L 11.0327 276.029999 L 11.2765 278.651001 L 7.25352 280.52301 L 5.79063 283.205994 L 9.93549 290.442993 L 9.50882 295.434998 L 13.4099 298.928986 L 16.091801 299.178009 L 14.568 291.44101 L 18.347099 292.002991 L 18.651899 289.756989 L 26.880699 295.122986 L 32.061798 301.612 L 36.694302 303.795013 L 41.570599 303.109009 L 49.311699 305.480011 L 50.652699 308.536987 L 61.746399 311.345001 L 65.769302 309.597992 L 60.771099 309.286011 L 68.085602 307.726013 L 81.800201 309.971985 L 85.335503 314.527008 L 76.558197 317.14801 L 66.074097 315.649994 L 59.2472 312.218994 L 54.7976 310.846008 L 53.334702 311.968994 L 48.275501 309.472992 L 46.751701 311.718994 L 49.311699 312.406006 L 49.494598 317.14801 L 48.3974 320.329987 L 50.9575 327.505005 L 48.885101 329.502014 L 49.494598 338.237 L 46.264 340.733002 L 52.115601 343.97699 L 50.591801 347.346008 L 60.344398 349.529999 L 64.489304 357.204987 L 67.5979 357.640991 L 70.584702 353.273987 L 73.083801 356.019012 L 79.240097 357.079987 L 81.007797 355.269989 L 85.2136 356.080994 L 86.249802 354.522003 L 90.882301 354.770996 L 100.695999 352.712006 L 104.536003 350.466003 L 105.389 347.65799 L 106.426003 350.716003 L 113.739998 349.467987 L 118.190002 347.78299 L 123.431999 348.03299 L 126.113998 345.598999 L 119.348 343.415985 L 121.969002 340.795013 L 127.880997 340.17099 L 133.671997 335.303986 L 138.731003 334.181 L 145.253006 334.181 L 142.632004 332.30899 L 137.145996 333.244995 L 136.720001 331.248993 L 132.819 332.55899 L 133.794006 328.56601 L 128.246994 333.244995 L 126.417999 332.80899 L 121.359001 335.678986 L 119.896004 335.117004 L 121.969002 330.937012 L 121.176003 327.878998 L 123.980003 324.322998 L 120.445 323.013 L 126.113998 320.018005 L 133.123001 320.391998 L 142.936996 319.269012 L 150.251007 315.401001 L 152.201996 313.591003 L 157.809998 311.220001 L 161.528 307.10199 L 168.598999 305.605011 L 174.266998 303.54599 L 180.423996 298.742004 L 181.947998 298.742004 L 191.334 289.756989 L 197.490997 284.765015 L 199.867996 285.575989 L 203.891006 283.205994 L 202.123001 281.645996 L 203.220001 276.59201 L 206.085007 280.39801 L 207.121994 277.902008 L 209.985992 280.334991 L 220.531006 275.592987 L 222.787003 276.841003 L 227.845993 269.790985 L 228.638 266.983002 L 235.281998 262.615997 L 237.841995 264.424988 L 242.901001 261.867004 L 241.865005 256.251007 L 248.203995 254.692001 L 249.544998 256.002014 L 251.373993 253.444 L 242.962006 252.945007 L 236.867004 254.503998 L 236.257996 256.501007 L 226.871002 257.686005 L 226.748993 256.751007 L 220.774994 256.875 L 217.362 257.997986 L 216.630005 261.118011 L 214.192001 259.496002 L 208.584 261.118011 L 208.949997 262.553009 L 201.087006 261.492004 L 199.990005 259.371002 L 203.037994 258.809998 L 197.856995 257.25 L 197.003006 260.368988 L 190.358994 253.007004 L 186.274994 253.380997 L 186.214005 255.751999 L 182.617996 256.063995 L 177.070999 259.05899 L 172.255997 256.626007 L 172.925995 255.626999 L 172.072998 247.453995 L 176.888 248.203003 L 177.315002 243.522995 L 181.154999 249.326004 L 185.727005 251.509003 L 184.690002 248.078003 L 181.886993 244.832993 L 182.617996 242.649994 L 178.716995 241.276993 L 174.145004 244.334 L 172.561005 236.348007 L 168.660004 235.910995 L 171.768005 231.917999 L 175.791 234.289001 L 177.376007 237.220993 L 178.899994 235.100006 L 181.947998 235.910995 L 185.177994 234.225998 L 182.251999 233.977005 L 177.253998 231.606003 L 174.511002 229.048004 L 171.462997 229.858994 L 168.660004 233.414993 L 167.684006 228.610992 L 159.942993 238.281998 L 157.016998 238.593994 L 160.369995 235.473999 L 160.309006 231.356003 L 158.906998 229.235001 L 152.445999 228.173996 L 150.007996 225.117004 L 152.628998 224.867004 L 151.166 221.436005 L 155.188995 221.934998 L 155.615005 218.628006 L 161.223007 216.444 L 165.550995 217.067993 L 172.621994 215.695007 L 176.218002 217.130005 L 175.912994 218.940002 L 180.667007 218.940002 L 181.033005 221.311005 L 183.593002 220.561996 L 194.199005 222.496002 L 197.552002 222.184006 L 203.768997 223.369995 L 219.677994 220.063004 L 220.227005 221.436005 L 228.334 219.251999 L 231.503006 219.626007 L 238.695999 217.067993 L 247.350998 215.820007 L 250.216003 214.509995 L 260.821991 212.451004 L 272.647003 206.710999 L 281.729004 202.841995 L 287.276001 198.412003 L 294.164001 194.544006 L 302.45401 188.865997 L 306.233002 181.753006 L 310.743011 179.007996 L 311.718994 176.449997 L 315.01001 177.509995 L 320.069 177.136002 L 321.653992 178.945007 L 328.175995 176.386993 L 333.845001 179.880997 L 342.988007 177.697998 L 354.752014 178.695999 L 360.725006 180.192993 L 362.920013 182.003006 L 369.015015 181.878006 L 369.990997 175.639008 L 367.856995 173.391998 L 367.917999 170.647003 L 371.453003 161.662003 L 375.292999 158.667007 L 376.695007 155.110992 L 386.752991 146.625 L 393.031006 140.447998 L 393.153015 139.013 L 385.656006 135.893997 L 383.522003 133.210999 L 381.694 135.332001 L 380.048004 131.651001 L 382.05899 126.783997 L 378.768005 126.285004 L 379.377014 124.537994 L 377.122009 121.980011 L 374.501007 121.730011 L 374.074005 117.612 L 372.002014 119.046997 L 363.834015 119.484009 L 360.42099 122.041992 L 363.164001 123.290009 L 357.372986 126.097992 L 356.459015 128.968002 L 348.35199 131.339005 L 342.988007 134.707993 L 339.756989 134.459 L 338.112 140.947998 L 330.30899 147.061996 L 326.834991 147.186996 L 323.786987 149.744995 L 327.627014 153.988007 L 324.335999 153.488998 L 324.213989 157.731995 L 321.348999 157.481995 L 319.520996 160.477005 L 321.837006 164.470001 L 318.302002 171.209 L 314.460999 171.895004 L 317.20401 174.703003 L 323.847992 174.703003 L 323.117004 177.011002 L 318.058014 175.451004 L 311.352997 174.639999 L 309.523987 170.335007 L 312.755005 161.287994 L 316.899994 156.296997 L 318.484009 152.990005 L 316.838989 149.557999 L 312.998993 150.992996 L 312.632996 147.936005 L 315.863007 143.255997 L 316.167999 137.016998 L 317.813995 134.459 L 321.592987 132.524002 L 322.690002 128.218994 L 322.080994 123.60199 L 324.579987 121.231003 L 332.321014 117.987 L 334.088989 118.548004 L 342.683014 114.117981 L 344.937988 111.684998 L 355.178986 107.692017 L 352.131012 103.261993 L 356.946014 101.515015 L 359.75 97.833496 L 363.041992 96.086487 L 362.432007 92.218109 L 364.382996 88.786407 L 367.368988 92.218109 L 372.97699 96.710388 L 376.147003 96.33609 L 379.86499 99.206207 L 381.450012 103.386993 L 380.109009 104.821991 L 382.730011 108.127991 L 382.424988 111.809998 L 387.789001 114.429993 L 383.460999 119.110001 L 385.04599 122.852997 L 388.641998 124.100998 L 388.277008 127.40799 L 395.957001 128.095001 L 401.26001 132.024994 L 412.596985 138.326996 L 416.132996 137.391006 L 419.058014 138.201996 L 419.118988 141.322006 L 421.375 145.128006 L 419.484985 146.313004 L 419.729004 149.557999 L 417.778015 147.498993 L 416.742004 149.619995 L 419.240997 152.865005 L 420.398987 149.557999 L 423.019989 147.186996 L 427.226013 149.246002 L 431.187988 148.934006 L 430.822998 145.626999 L 435.821014 146.501007 L 439.295013 142.632004 L 441.610992 141.945999 L 443.806 144.565994 L 448.255005 142.570007 L 451.05899 136.393005 L 456.118011 134.147003 L 457.946991 135.893997 L 454.106995 138.014999 L 451.181 144.503998 L 437.832001 148.559998 L 431.553986 155.173004 L 427.897003 155.173004 L 419.972992 159.229004 L 408.756989 161.537994 L 396.140015 170.647003 L 394.25 170.709 L 377.792999 182.813995 L 377.67099 184.623001 L 374.256989 187.492996 L 374.989014 189.240005 L 372.002014 190.425995 L 373.282013 193.358002 L 366.638 198.412003 L 364.321991 197.850998 L 356.641998 200.222 L 355.483002 204.214996 L 351.278015 206.212006 L 346.644989 211.764999 L 339.63501 213.947998 L 330.796997 218.628006 L 328.298004 221.809998 L 322.506989 225.117004 L 320.373993 230.608002 L 317.936005 231.419006 L 317.325989 228.673004 L 312.571991 228.610992 L 309.523987 230.981995 L 310.316986 236.410004 L 308.304993 237.345993 L 306.84201 234.414001 L 305.075012 237.033997 L 306.355011 241.214005 L 299.46701 245.395004 L 297.454987 244.209 L 289.347992 251.134995 L 286.665985 255.690002 L 283.436005 256.562988 L 280.204987 261.429993 L 274.109985 266.858002 L 274.718994 261.803986 L 270.14801 264.299988 L 272.951996 268.667999 L 271.549988 272.286987 L 264.053009 275.842987 L 256.311005 284.140991 L 254.544006 288.696014 L 248.570007 296.869995 L 238.817993 306.354004 L 233.210007 311.03299 L 219.067993 318.519989 L 214.192001 320.266998 L 202.184006 326.444 L 189.505997 333.619995 L 185.300003 336.48999 L 182.190994 337.175995 L 176.826996 341.669006 L 162.625 349.467987 L 153.542999 356.205994 L 146.593994 359.886993 L 141.901001 360.885986 L 138.548004 365.502991 L 136.292999 366.937988 L 130.867996 365.128998 L 121.542 368.684998 L 121.481003 371.056 L 114.776001 372.490997 L 116.483002 370.244995 L 115.324997 368.372986 L 112.704002 369.247009 L 113.617996 371.368011 L 110.083 374.363007 L 109.350998 371.243011 L 104.657997 372.678009 L 99.233002 369.621002 L 87.407997 369.746002 L 79.057297 368.559998 L 69.243698 371.929993 L 60.5882 372.303986 L 54.736599 371.679993 L 48.275501 366.063995 L 37.913399 360.261993 L 31.3913 354.209991 L 25.8445 346.785004 L 20.0539 340.856995 L 18.164301 335.678986 L 15.7871 322.450989 L 12.8613 312.592987 L 6.8878 296.308014 L 0 283.454987 Z"/>
    <text id="ChildWatch-Bermuda" xml:space="preserve" x="262.5" y="227" text-anchor="middle" font-family="Poppins" font-size="150" fill="#000000">ChildWatch Bermuda</text>
</svg>
