<svg width="515" height="375" viewBox="0 0 515 375" fill="none" xmlns="http://www.w3.org/2000/svg">
<path fill-rule="evenodd" clip-rule="evenodd" d="M367.187 75.1845L370.234 70.193L375.111 69.8811L375.171 67.9469L371.697 66.1998L374.806 61.7699L381.511 57.2775L393.336 51.1005L404.49 41.0551L415.706 33.1935L419.729 31.6337L429.969 23.6473L435.699 18.0942L441.246 10.9813L447.28 7.79923L447.585 3.80602L449.901 3.11969L449.352 5.80262L452.827 5.86502L451.059 3.18208L457.52 0L457.947 5.55305L460.568 7.54965L463.616 12.1044L465.81 12.6036L470.686 17.9694L476.538 27.7029L479.22 26.5174L482.146 30.8225L476.538 32.5696L473.795 32.0704L467.09 27.1413L463.799 26.8917L461.909 24.8327L456.789 23.7097L455.692 25.3943L447.524 28.3892L447.707 29.8242L438.381 34.1294L429.36 35.3773L431.31 37.1243L426.068 40.244L418.693 39.4953L423.203 34.6286L418.693 33.6303L418.632 36.8124L415.706 36.126L412.049 38.8713L411.012 41.6167L418.936 45.1107L422.777 42.6774L426.434 44.362L427.043 48.6048L425.641 49.9774L419.851 46.733L419.973 49.1663L417.169 51.6621L407.843 55.7177L405.709 51.5997L405.161 56.6536L398.273 59.7109L393.701 59.3989L388.338 64.64L383.035 64.2656L381.815 66.387L378.097 66.7614L378.524 68.5084L375.171 73.8119L367.187 75.1845Z" fill="#E09AA8" fill-opacity="0.25"/>
<path fill-rule="evenodd" clip-rule="evenodd" d="M477.818 54.7194L479.342 59.7733L477.209 62.3314L475.014 62.2067L473.795 65.1392L477.209 66.1999L480.561 64.8272L481.902 66.387L484.828 65.5135L488.302 67.7597L487.998 62.2691L498.116 61.5827L504.333 58.0887L504.15 56.0921L498.299 57.7143L495.982 59.5861L493.301 57.5271L497.933 53.9707L496.104 54.0331L496.165 49.6031L501.407 48.6672L509.88 49.2287L511.587 51.3501L509.088 54.2826L511.891 54.9066L515 61.2708L511.587 62.3938L509.88 65.8255L510.977 67.8221L509.27 75.1846L505.247 80.9248L500.432 76.2453L493.179 78.3043L492.691 76.8068L489.217 77.7427L486.657 88.2873L488.729 91.9685L492.081 93.4036L497.08 99.7053L495.129 101.64L495.373 104.447L501.103 108.128L504.028 112.496L502.626 113.994L499.944 110.063L494.337 112.933L496.043 108.877L491.35 106.381L491.228 109.564L485.255 99.6429L482.877 93.5907L480.256 94.0275L480.317 88.8488L478.306 85.8539L472.21 81.8607L468.919 81.2368L468.675 79.365L461.604 75.4965L449.353 72.564L440.941 72.2521L437.284 73.4375L435.455 76.7444L435.394 84.918L436.065 94.7138L434.968 96.5232L430.945 96.5856L428.994 74.1239L426.19 70.817L419.181 68.9452L415.645 69.1324L404.43 74.9974L409.428 73.2504L411.561 73.9991L411.622 77.3684L405.71 83.9821L401.443 81.5487L396.323 84.7308L391.69 84.4812L389.679 81.9855L387.18 75.5589L387.667 69.8811L395.408 66.3246L400.772 64.64L412.171 58.463L414.609 55.5929L418.51 53.5963L428.019 55.6553L431.798 52.286L431.615 50.3518L440.088 52.0365L449.414 52.7228L452.705 53.9083L456.241 51.9117L460.568 52.3484L462.336 55.9673L466.664 53.9083L472.881 55.2186L475.136 56.7784L477.818 54.7194Z" fill="#E09AA8" fill-opacity="0.25"/>
<path fill-rule="evenodd" clip-rule="evenodd" d="M22.9797 292.003L22.8578 290.693L29.6237 281.209L25.9055 283.705L19.5053 286.2L18.0424 285.327L19.7491 282.082L26.6979 274.658L25.4178 271.226L28.8313 268.917L28.8922 266.546L24.6254 263.364L27.0026 253.631L25.2959 253.444L25.7836 246.019L24.6254 241.714L17.7986 227.114L14.8119 226.49L13.7756 223.807L17.1281 221.373L19.3224 224.243L25.5397 226.614L32.6714 226.677L35.2314 224.181L38.9496 217.817L37.6086 214.822L43.0335 210.018L48.0318 209.518L49.068 211.141L43.4602 211.889L42.7897 215.758L46.2031 218.066L47.7879 220.937L45.6546 222.309L46.8736 226.614L55.4072 225.367L58.333 222.621L62.295 224.618L57.4796 231.356L56.6872 236.535L58.1501 239.53L64.2455 241.963L62.7217 243.586L57.9673 240.466L60.0397 245.395L54.7976 244.459L53.7614 249.014L45.5936 253.631H41.5706L42.0583 257.25L40.8392 262.241L36.6943 270.602L36.2676 276.717L34.6828 278.401L38.3401 279.961L39.3763 285.577L35.0486 286.762L27.3074 291.878L22.9797 292.003Z" fill="#E09AA8" fill-opacity="0.25"/>
<path fill-rule="evenodd" clip-rule="evenodd" d="M0 283.455L3.47438 282.27L2.31625 280.772L11.0327 276.03L11.2765 278.651L7.25352 280.523L5.79063 283.206L9.93549 290.443L9.50882 295.435L13.4099 298.929L16.0918 299.178L14.568 291.441L18.3471 292.003L18.6519 289.757L26.8807 295.123L32.0618 301.612L36.6943 303.795L41.5706 303.109L49.3117 305.48L50.6527 308.537L61.7464 311.345L65.7693 309.598L60.7711 309.286L68.0856 307.726L81.8002 309.972L85.3355 314.527L76.5582 317.148L66.0741 315.65L59.2472 312.219L54.7976 310.846L53.3347 311.969L48.2755 309.473L46.7517 311.719L49.3117 312.406L49.4946 317.148L48.3974 320.33L50.9575 327.505L48.8851 329.502L49.4946 338.237L46.264 340.733L52.1156 343.977L50.5918 347.346L60.3444 349.53L64.4893 357.205L67.5979 357.641L70.5847 353.274L73.0838 356.019L79.2401 357.08L81.0078 355.27L85.2136 356.081L86.2498 354.522L90.8823 354.771L100.696 352.712L104.536 350.466L105.389 347.658L106.426 350.716L113.74 349.468L118.19 347.783L123.432 348.033L126.114 345.599L119.348 343.416L121.969 340.795L127.881 340.171L133.672 335.304L138.731 334.181H145.253L142.632 332.309L137.146 333.245L136.72 331.249L132.819 332.559L133.794 328.566L128.247 333.245L126.418 332.809L121.359 335.679L119.896 335.117L121.969 330.937L121.176 327.879L123.98 324.323L120.445 323.013L126.114 320.018L133.123 320.392L142.937 319.269L150.251 315.401L152.202 313.591L157.81 311.22L161.528 307.102L168.599 305.605L174.267 303.546L180.424 298.742H181.948L191.334 289.757L197.491 284.765L199.868 285.576L203.891 283.206L202.123 281.646L203.22 276.592L206.085 280.398L207.122 277.902L209.986 280.335L220.531 275.593L222.787 276.841L227.846 269.791L228.638 266.983L235.282 262.616L237.842 264.425L242.901 261.867L241.865 256.251L248.204 254.692L249.545 256.002L251.374 253.444L242.962 252.945L236.867 254.504L236.258 256.501L226.871 257.686L226.749 256.751L220.775 256.875L217.362 257.998L216.63 261.118L214.192 259.496L208.584 261.118L208.95 262.553L201.087 261.492L199.99 259.371L203.038 258.81L197.857 257.25L197.003 260.369L190.359 253.007L186.275 253.381L186.214 255.752L182.618 256.064L177.071 259.059L172.256 256.626L172.926 255.627L172.073 247.454L176.888 248.203L177.315 243.523L181.155 249.326L185.727 251.509L184.69 248.078L181.887 244.833L182.618 242.65L178.717 241.277L174.145 244.334L172.561 236.348L168.66 235.911L171.768 231.918L175.791 234.289L177.376 237.221L178.9 235.1L181.948 235.911L185.178 234.226L182.252 233.977L177.254 231.606L174.511 229.048L171.463 229.859L168.66 233.415L167.684 228.611L159.943 238.282L157.017 238.594L160.37 235.474L160.309 231.356L158.907 229.235L152.446 228.174L150.008 225.117L152.629 224.867L151.166 221.436L155.189 221.935L155.615 218.628L161.223 216.444L165.551 217.068L172.622 215.695L176.218 217.13L175.913 218.94H180.667L181.033 221.311L183.593 220.562L194.199 222.496L197.552 222.184L203.769 223.37L219.678 220.063L220.227 221.436L228.334 219.252L231.503 219.626L238.696 217.068L247.351 215.82L250.216 214.51L260.822 212.451L272.647 206.711L281.729 202.842L287.276 198.412L294.164 194.544L302.454 188.866L306.233 181.753L310.743 179.008L311.719 176.45L315.01 177.51L320.069 177.136L321.654 178.945L328.176 176.387L333.845 179.881L342.988 177.698L354.752 178.696L360.725 180.193L362.92 182.003L369.015 181.878L369.991 175.639L367.857 173.392L367.918 170.647L371.453 161.662L375.293 158.667L376.695 155.111L386.753 146.625L393.031 140.448L393.153 139.013L385.656 135.894L383.522 133.211L381.694 135.332L380.048 131.651L382.059 126.784L378.768 126.285L379.377 124.538L377.122 121.98L374.501 121.73L374.074 117.612L372.002 119.047L363.834 119.484L360.421 122.042L363.164 123.29L357.373 126.098L356.459 128.968L348.352 131.339L342.988 134.708L339.757 134.459L338.112 140.948L330.309 147.062L326.835 147.187L323.787 149.745L327.627 153.988L324.336 153.489L324.214 157.732L321.349 157.482L319.521 160.477L321.837 164.47L318.302 171.209L314.461 171.895L317.204 174.703H323.848L323.117 177.011L318.058 175.451L311.353 174.64L309.524 170.335L312.755 161.288L316.9 156.297L318.484 152.99L316.839 149.558L312.999 150.993L312.633 147.936L315.863 143.256L316.168 137.017L317.814 134.459L321.593 132.524L322.69 128.219L322.081 123.602L324.58 121.231L332.321 117.987L334.089 118.548L342.683 114.118L344.938 111.685L355.179 107.692L352.131 103.262L356.946 101.515L359.75 97.8335L363.042 96.0865L362.432 92.2181L364.383 88.7864L367.369 92.2181L372.977 96.7104L376.147 96.3361L379.865 99.2062L381.45 103.387L380.109 104.822L382.73 108.128L382.425 111.81L387.789 114.43L383.461 119.11L385.046 122.853L388.642 124.101L388.277 127.408L395.957 128.095L401.26 132.025L412.597 138.327L416.133 137.391L419.058 138.202L419.119 141.322L421.375 145.128L419.485 146.313L419.729 149.558L417.778 147.499L416.742 149.62L419.241 152.865L420.399 149.558L423.02 147.187L427.226 149.246L431.188 148.934L430.823 145.627L435.821 146.501L439.295 142.632L441.611 141.946L443.806 144.566L448.255 142.57L451.059 136.393L456.118 134.147L457.947 135.894L454.107 138.015L451.181 144.504L437.832 148.56L431.554 155.173H427.897L419.973 159.229L408.757 161.538L396.14 170.647L394.25 170.709L377.793 182.814L377.671 184.623L374.257 187.493L374.989 189.24L372.002 190.426L373.282 193.358L366.638 198.412L364.322 197.851L356.642 200.222L355.483 204.215L351.278 206.212L346.645 211.765L339.635 213.948L330.797 218.628L328.298 221.81L322.507 225.117L320.374 230.608L317.936 231.419L317.326 228.673L312.572 228.611L309.524 230.982L310.317 236.41L308.305 237.346L306.842 234.414L305.075 237.034L306.355 241.214L299.467 245.395L297.455 244.209L289.348 251.135L286.666 255.69L283.436 256.563L280.205 261.43L274.11 266.858L274.719 261.804L270.148 264.3L272.952 268.668L271.55 272.287L264.053 275.843L256.311 284.141L254.544 288.696L248.57 296.87L238.818 306.354L233.21 311.033L219.068 318.52L214.192 320.267L202.184 326.444L189.506 333.62L185.3 336.49L182.191 337.176L176.827 341.669L162.625 349.468L153.543 356.206L146.594 359.887L141.901 360.886L138.548 365.503L136.293 366.938L130.868 365.129L121.542 368.685L121.481 371.056L114.776 372.491L116.483 370.245L115.325 368.373L112.704 369.247L113.618 371.368L110.083 374.363L109.351 371.243L104.658 372.678L99.233 369.621L87.408 369.746L79.0573 368.56L69.2437 371.93L60.5882 372.304L54.7366 371.68L48.2755 366.064L37.9134 360.262L31.3913 354.21L25.8445 346.785L20.0539 340.857L18.1643 335.679L15.7871 322.451L12.8613 312.593L6.8878 296.308L0 283.455Z" fill="#E09AA8" fill-opacity="0.25"/>
</svg>
