<svg width="101" height="101" viewBox="0 0 101 101" fill="none" xmlns="http://www.w3.org/2000/svg">
<circle cx="50.5" cy="50.5" r="50.5" fill="url(#paint0_radial_535_40)"/>
<path fill-rule="evenodd" clip-rule="evenodd" d="M66.8998 34.0068L67.3554 33.2761L68.0845 33.2304L68.0936 32.9473L67.5742 32.6915L68.0389 32.043L69.0414 31.3853L70.8095 30.481L72.4772 29.0104L74.1541 27.8595L74.7556 27.6311L76.2867 26.4619L77.1433 25.649L77.9727 24.6076L78.8749 24.1418L78.9205 23.5572L79.2668 23.4567L79.1848 23.8495L79.7042 23.8586L79.4399 23.4658L80.406 23L80.4698 23.813L80.8616 24.1053L81.3173 24.7721L81.6454 24.8451L82.3745 25.6307L83.2494 27.0556L83.6504 26.8821L84.0878 27.5124L83.2494 27.7681L82.8393 27.695L81.8368 26.9734L81.3447 26.9369L81.0621 26.6355L80.2966 26.471L80.1326 26.7177L78.9114 27.1561L78.9387 27.3662L77.5443 27.9965L76.1955 28.1792L76.4872 28.4349L75.7034 28.8916L74.6007 28.782L75.2751 28.0695L74.6007 27.9234L74.5916 28.3892L74.1541 28.2888L73.6073 28.6907L73.4524 29.0926L74.6371 29.6041L75.2113 29.2479L75.7581 29.4945L75.8492 30.1156L75.6396 30.3166L74.7738 29.8416L74.7921 30.1978L74.3728 30.5632L72.9785 31.1569L72.6595 30.5541L72.5775 31.294L71.5476 31.7415L70.8641 31.6959L70.0621 32.4631L69.2693 32.4083L69.087 32.7189L68.5311 32.7737L68.5949 33.0295L68.0936 33.8059L66.8998 34.0068Z" fill="#DA1E78"/>
<path fill-rule="evenodd" clip-rule="evenodd" d="M83.4408 31.0108L83.6686 31.7507L83.3496 32.1252L83.0215 32.1069L82.8393 32.5362L83.3496 32.6915L83.8509 32.4905L84.0514 32.7189L84.4888 32.591L85.0083 32.9199L84.9627 32.116L86.4756 32.0156L87.4051 31.504L87.3778 31.2117L86.5029 31.4492L86.1566 31.7233L85.7556 31.4218L86.4482 30.9012L86.1748 30.9103L86.1839 30.2618L86.9677 30.1248L88.2345 30.207L88.4897 30.5175L88.116 30.9469L88.5352 31.0382L89 31.9699L88.4897 32.1343L88.2345 32.6367L88.3985 32.929L88.1433 34.0068L87.5418 34.8472L86.8219 34.1621L85.7374 34.4636L85.6645 34.2443L85.145 34.3814L84.7622 35.925L85.0721 36.464L85.5733 36.6741L86.3206 37.5966L86.029 37.8798L86.0655 38.2908L86.9221 38.8298L87.3596 39.4692L87.15 39.6884L86.749 39.1129L85.9105 39.5331L86.1657 38.9394L85.464 38.574L85.4457 39.0398L84.5526 37.5875L84.1972 36.7015L83.8053 36.7654L83.8144 36.0073L83.5137 35.5688L82.6023 34.9842L82.1102 34.8929L82.0737 34.6188L81.0166 34.0525L79.1848 33.6232L77.9271 33.5775L77.3803 33.7511L77.1069 34.2352L77.0978 35.4318L77.198 36.8659L77.034 37.1308L76.4325 37.1399L76.1409 33.8516L75.7216 33.3674L74.6736 33.0934L74.145 33.1208L72.4681 33.9794L73.2154 33.7237L73.5344 33.8333L73.5435 34.3265L72.6595 35.2948L72.0216 34.9385L71.256 35.4044L70.5634 35.3679L70.2626 35.0025L69.889 34.0617L69.9619 33.2304L71.1193 32.7098L71.9213 32.4631L73.6255 31.5588L73.9901 31.1387L74.5733 30.8464L75.995 31.1478L76.5601 30.6546L76.5327 30.3714L77.7995 30.618L79.1939 30.7185L79.686 30.892L80.2146 30.5997L80.8616 30.6637L81.1259 31.1935L81.773 30.892L82.7026 31.0839L83.0398 31.3122L83.4408 31.0108Z" fill="#DA1E78"/>
<path fill-rule="evenodd" clip-rule="evenodd" d="M15.4358 65.7486L15.4176 65.5568L16.4292 64.1684L15.8732 64.5337L14.9163 64.8991L14.6976 64.7712L14.9528 64.2962L15.9917 63.2093L15.8003 62.7069L16.3107 62.3689L16.3198 62.0218L15.6819 61.5559L16.0373 60.131L15.7821 60.1036L15.855 59.0166L15.6819 58.3863L14.6612 56.2489L14.2146 56.1576L14.0597 55.7648L14.5609 55.4086L14.889 55.8287L15.8186 56.1758L16.8848 56.185L17.2676 55.8196L17.8235 54.8879L17.623 54.4495L18.4341 53.7461L19.1815 53.673L19.3364 53.9105L18.4979 54.0201L18.3977 54.5865L18.908 54.9244L19.145 55.3446L18.826 55.5456L19.0083 56.1758L20.2842 55.9931L20.7216 55.5912L21.314 55.8835L20.594 56.87L20.4756 57.6282L20.6943 58.0666L21.6056 58.4229L21.3778 58.6604L20.667 58.2037L20.9768 58.9253L20.193 58.7882L20.0381 59.4551L18.8169 60.131H18.2154L18.2883 60.6608L18.1061 61.3915L17.4863 62.6155L17.4225 63.5107L17.1856 63.7573L17.7324 63.9857L17.8873 64.8078L17.2403 64.9813L16.0829 65.7303L15.4358 65.7486Z" fill="#DA1E78"/>
<path fill-rule="evenodd" clip-rule="evenodd" d="M12 64.4972L12.5195 64.3236L12.3463 64.1044L13.6495 63.4102L13.686 63.7938L13.0845 64.0679L12.8658 64.4607L13.4855 65.5202L13.4217 66.251L14.005 66.7625L14.406 66.799L14.1781 65.6664L14.7432 65.7486L14.7887 65.4198L16.0191 66.2053L16.7937 67.1553L17.4863 67.475L18.2154 67.3745L19.3728 67.7216L19.5733 68.1692L21.232 68.5802L21.8335 68.3245L21.0862 68.2788L22.1798 68.0504L24.2303 68.3793L24.7589 69.0461L23.4466 69.4297L21.879 69.2105L20.8583 68.7081L20.193 68.5072L19.9743 68.6716L19.2179 68.3062L18.9901 68.635L19.3728 68.7355L19.4002 69.4297L19.2361 69.8956L19.6189 70.946L19.309 71.2383L19.4002 72.5171L18.9171 72.8825L19.792 73.3575L19.5642 73.8507L21.0224 74.1704L21.6421 75.2939L22.1069 75.3579L22.5534 74.7185L22.9271 75.1204L23.8476 75.2757L24.1118 75.0108L24.7407 75.1295L24.8956 74.9012L25.5882 74.9377L27.0555 74.6363L27.6297 74.3074L27.7572 73.8964L27.9122 74.344L29.0058 74.1613L29.6711 73.9147L30.4548 73.9512L30.8558 73.595L29.8442 73.2753L30.2361 72.8916L31.1201 72.8003L31.9859 72.0878L32.7423 71.9234H33.7175L33.3256 71.6494L32.5054 71.7864L32.4416 71.4941L31.8583 71.6859L32.0041 71.1013L31.1748 71.7864L30.9014 71.7224L30.145 72.1426L29.9263 72.0604L30.2361 71.4484L30.1176 71.0008L30.5369 70.4802L30.0083 70.2883L30.8558 69.8499L31.9039 69.9047L33.3712 69.7403L34.4648 69.174L34.7564 68.9091L35.5949 68.562L36.1508 67.9591L37.2079 67.7399L38.0555 67.4384L38.976 66.7351H39.2038L40.6073 65.4198L41.5277 64.689L41.8832 64.8078L42.4847 64.4607L42.2204 64.2323L42.3844 63.4924L42.8127 64.0496L42.9677 63.6842L43.396 64.0405L44.9726 63.3463L45.3098 63.529L46.0663 62.4968L46.1847 62.0857L47.1781 61.4463L47.5609 61.7112L48.3173 61.3367L48.1624 60.5146L49.1102 60.2863L49.3107 60.4781L49.5841 60.1036L48.3264 60.0305L47.4151 60.2589L47.3239 60.5512L45.9205 60.7247L45.9022 60.5877L45.0091 60.606L44.4987 60.7704L44.3894 61.2271L44.0248 60.9896L43.1864 61.2271L43.2411 61.4372L42.0654 61.2819L41.9014 60.9713L42.3571 60.8891L41.5824 60.6608L41.4548 61.1175L40.4615 60.0396L39.8509 60.0944L39.8417 60.4416L39.3041 60.4872L38.4747 60.9257L37.7548 60.5694L37.855 60.4233L37.7274 59.2267L38.4474 59.3363L38.5112 58.6512L39.0853 59.5007L39.7688 59.8204L39.6139 59.318L39.1947 58.843L39.3041 58.5233L38.7208 58.3224L38.0373 58.77L37.8003 57.6008L37.2171 57.5368L37.6818 56.9522L38.2833 57.2993L38.5203 57.7287L38.7481 57.4181L39.2038 57.5368L39.6868 57.2902L39.2494 57.2537L38.5021 56.9066L38.092 56.5321L37.6363 56.6508L37.2171 57.1715L37.0712 56.4681L35.9138 57.8839L35.4764 57.9296L35.9776 57.4729L35.9685 56.87L35.7589 56.5595L34.7929 56.4042L34.4283 55.9566L34.8202 55.9201L34.6015 55.4177L35.203 55.4908L35.2668 55.0066L36.1052 54.6869L36.7523 54.7783L37.8094 54.5773L38.3471 54.7874L38.3016 55.0523H39.0124L39.0671 55.3994L39.4499 55.2898L41.0356 55.573L41.5369 55.5273L42.4664 55.7008L44.8451 55.2167L44.9271 55.4177L46.1392 55.098L46.6131 55.1528L47.6885 54.7783L48.9826 54.5956L49.4109 54.4038L50.9967 54.1023L52.7647 53.262L54.1226 52.6957L54.9519 52.0471L55.9818 51.4808L57.2212 50.6496L57.7862 49.6083L58.4606 49.2063L58.6064 48.8318L59.0986 48.9871L59.855 48.9323L60.0919 49.1972L61.0671 48.8227L61.9146 49.3342L63.2817 49.0145L65.0406 49.1607L65.9337 49.3799L66.2618 49.6448L67.1731 49.6265L67.319 48.7131L67 48.3843L67.0091 47.9823L67.5377 46.667L68.1118 46.2286L68.3214 45.7079L69.8252 44.4656L70.7639 43.5613L70.7821 43.3513L69.6611 42.8945L69.3421 42.5018L69.0687 42.8123L68.8227 42.2734L69.1234 41.5609L68.6313 41.4879L68.7224 41.2321L68.3852 40.8576L67.9934 40.821L67.9296 40.2182L67.6197 40.4283L66.3985 40.4922L65.8881 40.8667L66.2982 41.0494L65.4325 41.4605L65.2958 41.8806L64.0837 42.2277L63.2817 42.721L62.7987 42.6844L62.5526 43.6344L61.3861 44.5296L60.8666 44.5478L60.4109 44.9224L60.9851 45.5435L60.4929 45.4704L60.4747 46.0915L60.0464 46.055L59.773 46.4935L60.1193 47.0781L59.5907 48.0646L59.0166 48.165L59.4267 48.5761H60.42L60.3107 48.914L59.5542 48.6857L58.5518 48.5669L58.2784 47.9367L58.7614 46.6122L59.3811 45.8815L59.618 45.3973L59.372 44.895L58.7978 45.105L58.7431 44.6575L59.2262 43.9724L59.2717 43.059L59.5178 42.6844L60.0828 42.4013L60.2469 41.771L60.1557 41.0951L60.5294 40.748L61.6868 40.273L61.9511 40.3552L63.2361 39.7067L63.5733 39.3504L65.1044 38.7658L64.6487 38.1173L65.3687 37.8615L65.7879 37.3226L66.28 37.0668L66.1889 36.5005L66.4805 35.9981L66.9271 36.5005L67.7655 37.1582L68.2394 37.1034L68.7953 37.5236L69.0323 38.1356L68.8318 38.3456L69.2237 38.8298L69.1781 39.3687L69.9801 39.7523L69.333 40.4374L69.57 40.9855L70.1077 41.1682L70.053 41.6523L71.2013 41.7527L71.9942 42.3282L73.6893 43.2508L74.2179 43.1138L74.6553 43.2325L74.6644 43.6892L75.0016 44.2464L74.7191 44.42L74.7556 44.895L74.4639 44.5935L74.309 44.9041L74.6827 45.3791L74.8558 44.895L75.2477 44.5478L75.8765 44.8493L76.4689 44.8036L76.4142 44.3195L77.1615 44.4474L77.681 43.881L78.0273 43.7806L78.3554 44.1642L79.0207 43.8719L79.4399 42.9676L80.1963 42.6388L80.4697 42.8945L79.8956 43.2051L79.4581 44.1551L77.4623 44.7488L76.5236 45.717H75.9768L74.792 46.3108L73.1151 46.6487L71.2286 47.9823L70.9461 47.9915L68.4855 49.7635L68.4673 50.0284L67.9569 50.4486L68.0663 50.7044L67.6197 50.8779L67.8111 51.3072L66.8177 52.0471L66.4714 51.9649L65.3231 52.312L65.1499 52.8966L64.5211 53.1889L63.8285 54.0019L62.7804 54.3216L61.459 55.0066L61.0853 55.4725L60.2195 55.9566L59.9006 56.7604L59.536 56.8792L59.4449 56.4773L58.734 56.4681L58.2784 56.8152L58.3968 57.6099L58.0961 57.7469L57.8774 57.3176L57.6131 57.7013L57.8045 58.3133L56.7746 58.9253L56.4739 58.7517L55.2618 59.7656L54.8608 60.4324L54.3778 60.5603L53.8948 61.2728L52.9834 62.0675L53.0746 61.3276L52.391 61.693L52.8103 62.3324L52.6007 62.8621L51.4797 63.3828L50.3223 64.5977L50.058 65.2645L49.1649 66.4611L47.7067 67.8495L46.8683 68.5346L44.7539 69.6307L44.0248 69.8864L42.2295 70.7907L40.3339 71.8412L39.705 72.2614L39.2403 72.3618L38.4383 73.0195L36.3148 74.1613L34.9569 75.1478L33.918 75.6867L33.2162 75.8329L32.715 76.5088L32.3778 76.7189L31.5667 76.454L30.1723 76.9747L30.1632 77.3218L29.1607 77.5319L29.4159 77.203L29.2427 76.929L28.8509 77.0569L28.9876 77.3674L28.459 77.8059L28.3496 77.3492L27.6479 77.5593L26.8368 77.1117L25.0688 77.1299L23.8202 76.9564L22.3529 77.4496L21.0588 77.5044L20.1839 77.4131L19.2179 76.591L17.6686 75.7415L16.6935 74.8555L15.8641 73.7685L14.9983 72.9008L14.7158 72.1426L14.3604 70.2061L13.9229 68.7629L13.0298 66.3789L12 64.4972Z" fill="#DA1E78"/>
<defs>
<radialGradient id="paint0_radial_535_40" cx="0" cy="0" r="1" gradientUnits="userSpaceOnUse" gradientTransform="translate(50.5 50.5) rotate(90) scale(50.5)">
<stop stop-color="#8AC2EB"/>
<stop offset="1" stop-color="#8AC2EB" stop-opacity="0"/>
</radialGradient>
</defs>
</svg>
