<svg width="35" height="35" viewBox="0 0 35 35" fill="none" xmlns="http://www.w3.org/2000/svg">
<path fill-rule="evenodd" clip-rule="evenodd" d="M0 17.5C0 16.8371 0.230443 16.2013 0.640633 15.7326C1.05082 15.2638 1.60716 15.0005 2.18726 15.0005H27.5288L18.1367 4.27239C17.726 3.80304 17.4953 3.16647 17.4953 2.50271C17.4953 1.83895 17.726 1.20237 18.1367 0.733026C18.5474 0.263678 19.1045 0 19.6853 0C20.2661 0 20.8232 0.263678 21.2339 0.733026L34.3574 15.7303C34.5611 15.9625 34.7227 16.2383 34.833 16.542C34.9432 16.8457 35 17.1712 35 17.5C35 17.8288 34.9432 18.1543 34.833 18.458C34.7227 18.7617 34.5611 19.0375 34.3574 19.2697L21.2339 34.267C20.8232 34.7363 20.2661 35 19.6853 35C19.1045 35 18.5474 34.7363 18.1367 34.267C17.726 33.7976 17.4953 33.1611 17.4953 32.4973C17.4953 31.8335 17.726 31.197 18.1367 30.7276L27.5288 19.9995H2.18726C1.60716 19.9995 1.05082 19.7362 0.640633 19.2675C0.230443 18.7987 0 18.1629 0 17.5Z" fill="white"/>
</svg>
