<svg width="429" height="59" viewBox="0 0 429 59" fill="none" xmlns="http://www.w3.org/2000/svg">
<path fill-rule="evenodd" clip-rule="evenodd" d="M190.559 13.827C129.012 23.4643 119.499 24.9964 109.982 26.4807C99.2343 28.157 88.4823 29.7725 2.78163 42.9317C1.40063 43.1438 0.161699 41.7041 0.0143931 39.7161C-0.132913 37.7282 0.867191 35.9447 2.24819 35.7326C87.9458 22.5739 98.696 20.9587 109.442 19.2827C119.14 17.7701 128.834 16.208 193.619 6.06546C196.644 5.59179 201.076 4.8107 205.895 3.96146C210.793 3.0983 216.091 2.16475 220.716 1.41207C225.211 0.680753 229.09 0.117627 231.115 0.0169597C231.602 -0.00724925 232.122 -0.0138805 232.545 0.0544257L232.558 0.0564723C232.696 0.0782394 233.211 0.159504 233.718 0.562719C233.978 0.770283 234.73 1.45227 234.982 2.92428C235.255 4.52434 234.724 5.70822 234.464 6.1637C234.197 6.62925 233.91 6.90184 233.781 7.01783C233.623 7.15965 233.474 7.26553 233.36 7.33989C233.133 7.4888 232.888 7.61643 232.659 7.72554C232.19 7.94797 231.57 8.19419 230.813 8.46686C216.192 13.7284 201.213 18.1045 186.254 22.4745C179.458 24.4599 172.666 26.4441 165.914 28.5094C145.734 34.6825 125.808 41.6072 106.762 51.5221C107.18 51.4765 107.604 51.4273 108.035 51.3771L108.088 51.3709C109.249 51.2355 110.463 51.094 111.673 51.0204C135.553 49.5679 172.054 44.4661 193.973 41.3805C211.897 38.8572 230.01 35.4772 248.204 32.0821C279.189 26.2999 310.409 20.4739 341.333 18.7618C341.665 18.7434 341.923 18.7296 342.105 18.7222C342.193 18.7186 342.283 18.7156 342.361 18.7153C342.384 18.7152 342.417 18.7153 342.455 18.7163C342.475 18.7169 342.498 18.7178 342.52 18.7191C342.552 18.7209 342.607 18.7246 342.673 18.7336L342.676 18.734C342.717 18.7396 342.884 18.762 343.086 18.8384C343.167 18.8689 343.446 18.9758 343.759 19.2507C343.971 19.4364 345.04 20.4564 344.962 22.5389C344.896 24.2872 344.036 25.1634 343.913 25.2884L343.907 25.2941C343.668 25.5395 343.453 25.6657 343.38 25.7079C343.207 25.8069 343.064 25.8564 343.025 25.8698C342.965 25.8906 342.914 25.9051 342.884 25.9132C342.781 25.9409 342.675 25.9609 342.619 25.9712C342.482 25.9967 342.284 26.0295 342.064 26.0659L342.052 26.0679C341.138 26.2193 339.436 26.5009 337.473 26.9643C336.948 27.0883 336.409 27.2242 335.865 27.3725C345.958 27.5788 356.122 27.3283 366.235 27.0011C375.756 26.6931 385.272 24.8139 394.929 22.9068C395.331 22.8274 395.734 22.7478 396.137 22.6684C406.154 20.6932 416.32 18.7591 426.485 18.7591C427.874 18.7591 429 20.3798 429 22.379C429 24.3783 427.874 25.999 426.485 25.999C416.713 25.999 406.871 27.8592 396.82 29.8413C396.386 29.9267 395.953 30.0124 395.519 30.0981C385.938 31.9909 376.163 33.9217 366.348 34.2392C354.607 34.619 342.704 34.8993 330.898 34.4744C330.798 34.4709 330.681 34.4675 330.55 34.4638C329.701 34.4395 328.264 34.3984 327.104 34.1633C326.539 34.0487 325.535 33.8082 324.742 33.0667C324.304 32.6568 323.524 31.704 323.38 30.0195C323.287 28.9382 323.5 28.049 323.758 27.4011C298.929 29.9122 274.092 34.5518 249.235 39.1953C230.99 42.6035 212.734 46.0138 194.462 48.586C172.59 51.665 135.935 56.791 111.885 58.2538C110.773 58.3215 109.641 58.4534 108.447 58.5926L108.441 58.5933C107.262 58.7308 106.023 58.8751 104.781 58.9489C102.301 59.0963 99.6424 58.9778 97.0108 57.8781C96.65 57.7272 95.5199 57.1835 95.0347 55.3957C94.5078 53.454 95.2136 51.9057 95.4572 51.4406C95.7638 50.8554 96.136 50.4244 96.3914 50.1537C96.6763 49.8519 96.9855 49.5744 97.2808 49.3297C98.4303 48.3772 99.9343 47.4592 100.742 47.016C121.431 35.6708 143.121 28.0802 164.869 21.4276C171.72 19.3319 178.566 17.3322 185.389 15.339C187.114 14.8351 188.837 14.3316 190.559 13.827Z" fill="#F02A47"/>
</svg>
