<?xml version="1.0" encoding="UTF-8"?>
<!-- Generated by Pixelmator Pro 2.4.2 -->
<svg width="97" height="611" viewBox="0 0 97 611" xmlns="http://www.w3.org/2000/svg" xmlns:xlink="http://www.w3.org/1999/xlink">
    <g id="Group">
        <linearGradient id="linearGradient1" x1="0" y1="261.5" x2="764" y2="261.5" gradientUnits="userSpaceOnUse">
            <stop offset="1e-05" stop-color="#ffb347" stop-opacity="1"/>
            <stop offset="1" stop-color="#ffcc33" stop-opacity="1"/>
        </linearGradient>
        <path id="Path" fill="url(#linearGradient1)" fill-rule="evenodd" stroke="none" d="M 385.901001 -21.137024 C 441.229004 -3.389038 497.597992 -2.684998 552.578979 16.110962 C 624.531006 40.710022 725.064026 36.973999 757.276001 105.825989 C 789.409973 174.513 696.008972 243.903015 694.617981 319.716003 C 692.901978 413.22998 797.68103 509.80603 748.401978 589.314026 C 701.802979 664.499023 582.474976 645.385986 494.013 643.377991 C 423.415009 641.776001 366.731995 587.973999 296.681 579.062012 C 206.404999 567.577026 96.117699 645.947021 29.246201 584.25 C -35.016201 524.958984 27.1478 414.728027 23.887699 327.375 C 21.053699 251.436005 -6.66054 178.201996 11.3372 104.371002 C 31.787399 20.479004 50.697102 -91.161682 132.604004 -118.60675 C 220.158005 -147.944275 297.973999 -49.341675 385.901001 -21.137024 Z"/>
    </g>
</svg>
